<?xml version="1.0" encoding="utf-8"?>
<!-- Generator: Adobe Illustrator 26.3.1, SVG Export Plug-In . SVG Version: 6.00 Build 0)  -->
<svg version="1.1" id="Layer_1" xmlns="http://www.w3.org/2000/svg" xmlns:xlink="http://www.w3.org/1999/xlink" x="0px" y="0px"
	 viewBox="0 0 588.1 357.4" style="enable-background:new 0 0 588.1 357.4;" xml:space="preserve">
<style type="text/css">
	.st0{fill-rule:evenodd;clip-rule:evenodd;fill:#FFFFFF;}
	.st1{fill:#FF5F00;}
	.st2{fill:#EB001B;}
	.st3{fill:#F79E1B;}
</style>
<path id="Rectangle-11" class="st0" d="M24.4,0h538.9c13,0,24.4,11.4,24.4,24.4v310.3c0,11.4-11.4,22.7-24.4,22.7H24.4
	C11.4,357.4,0,346,0,333V24.4C1.6,11.4,11.4,0,24.4,0z"/>
<g id="layer1" transform="matrix(3.3557321,0,0,3.3557321,-1551.7864,-2007.0469)">
	<g id="g13" transform="matrix(2.5579399,0,0,2.5579399,884.90115,-11.427398)">
		<g id="XMLID_328_" transform="translate(-502.86126,-22.613497)">
			<rect id="rect19" x="366.4" y="271.7" class="st1" width="11.1" height="20"/>
			<path id="XMLID_330_" class="st2" d="M367.1,281.7c0-4.1,1.9-7.7,4.8-10c-2.2-1.7-4.9-2.7-7.8-2.7c-7,0-12.7,5.7-12.7,12.7
				s5.7,12.7,12.7,12.7c3,0,5.7-1,7.8-2.7C369,289.4,367.1,285.8,367.1,281.7z"/>
			<path id="path22" class="st3" d="M392.5,281.7c0,7-5.7,12.7-12.7,12.7c-3,0-5.7-1-7.8-2.7c3-2.3,4.8-5.9,4.8-10s-1.9-7.7-4.8-10
				c2.2-1.7,4.9-2.7,7.8-2.7C386.9,269,392.5,274.7,392.5,281.7z"/>
		</g>
	</g>
</g>
</svg>
