<?xml version="1.0" encoding="utf-8"?>
<!-- Generator: Adobe Illustrator 26.3.1, SVG Export Plug-In . SVG Version: 6.00 Build 0)  -->
<svg version="1.1" id="Layer_1" xmlns="http://www.w3.org/2000/svg" xmlns:xlink="http://www.w3.org/1999/xlink" x="0px" y="0px"
	 viewBox="0 0 588.1 357.4" style="enable-background:new 0 0 588.1 357.4;" xml:space="preserve">
<style type="text/css">
	.st0{fill:#FCD202;}
	.st1{fill:#FFDB28;}
	.st2{fill:#D9B23D;}
	.st3{fill:#FFFFFF;}
	.st4{fill:#E2000E;}
	.st5{fill:#171715;}
</style>
<g>
	<path class="st0" d="M446.6,22.7C451.5,9.7,464.5,0,477.5,0H24.4C11.4,0,1.6,11.4,0,24.4V333c0,13,11.4,24.4,24.4,24.4h147.7
		C404.4,237.1,446.6,22.7,446.6,22.7z M144.6,199.9c0,13-11.4,24.4-24.4,24.4H65c-13,0-24.4-11.4-24.4-24.4v-47.1
		C40.6,139.7,52,130,65,130h55.2c13,0,24.4,11.4,24.4,24.4V199.9z"/>
	<path class="st1" d="M563.6,0h-50.3h-35.8c-13,0-26,9.7-30.9,22.7c0,0-42.2,214.4-274.5,334.7h341.2h50.3c13,0,24.4-11.4,24.4-24.4
		V24.4C588,11.4,576.6,0,563.6,0z"/>
	<path class="st2" d="M120.2,130H65c-13,0-24.4,9.7-24.4,22.8v47.1c0,13,11.4,24.4,24.4,24.4h55.2c13,0,24.4-11.4,24.4-24.4v-45.5
		C144.6,141.4,133.2,130,120.2,130z"/>
</g>
<path class="st3" d="M44.3,75l-3.7,17.6h304.1l3.7-17.6H44.3z"/>
<path class="st4" d="M381.3,51c0,0,4.1-18.7,4.2-18.8h-25.9c0,0.1-5.4,24.8-5.4,24.9h6.6c0.1,0,4-18.7,4-18.7h12.6
	c0,0-4,18.7-4,18.8h19.1L390,68.8h-19c0,0.1-3.9,17.6-3.9,17.6h-14.4c0,0.1-1.3,6.3-1.3,6.3h21.2c0-0.1,3.8-17.6,3.8-17.6h19
	c0-0.1,5-23.9,5-24L381.3,51L381.3,51z"/>
<path class="st5" d="M62.6,61l2.7-12.9h3.5c3.9,0,5.7,1.6,5.7,5.3c0,4.7-3,7.6-8.5,7.6H62.6L62.6,61z M61.1,68.1h3.7
	c11.7,0,18.2-5.7,18.2-15.4c0-7.2-5.1-11.8-13.8-11.8H58.5L50.2,80h8.4L61.1,68.1z M96.3,74.2c-3.3,0-5.9-2.6-4.7-8.6
	c1.2-6,4.1-8.6,7.4-8.6c3.3,0,5.9,2.7,4.6,8.6C102.4,71.5,99.6,74.2,96.3,74.2 M95.5,80.9c9.1,0,15.3-6.6,16.7-15.3
	c1.4-8.7-3.4-15.3-12.5-15.3S84.4,56.9,83,65.6C81.5,74.3,86.4,80.9,95.5,80.9 M126.8,71.5c0,2.4-2.8,2.7-5.3,2.7
	c-3,0-6.4-0.8-8.2-1.4l-1.4,6.5c2.6,0.7,5.9,1.1,9.1,1.1c7.4,0,13.5-2.8,13.5-9.8c0-9-10.8-7.4-10.8-11.5c0-1.8,1.8-2.5,4.5-2.5
	c2.6,0,6.3,1,7.5,1.4l1.4-6.6c-2.5-0.7-5.5-1.1-8.2-1.1c-8.1,0-13,3.6-13,9.6C116,69,126.8,67.6,126.8,71.5 M158.4,57.5l1.3-6.3
	h-8.9l1.8-8l-8.7,1.9l-5.4,24.7c-1.5,7,2.4,10.8,9.3,10.8c1.4,0,3.9-0.3,5.7-0.8l1.4-6.3c-1.4,0.4-3.1,0.7-4.6,0.7
	c-2.4,0-4.1-0.8-3.5-3.7l2.7-12.8L158.4,57.5L158.4,57.5z M166.6,80.1l3.3-15.1h12.6l1.5-7.4h-12.5l1.9-9.2h13.2l1.6-7.4h-21.9
	l-8.3,39.1L166.6,80.1L166.6,80.1z M190.1,51.2l-6.2,28.9h8.3l6.2-28.9H190.1z M191.3,43.2c-0.2,2.6,1.8,4.6,4.3,4.6
	c2.8,0,4.9-2.1,5.1-4.6c0.2-2.6-1.8-4.6-4.3-4.6C193.5,38.5,191.4,40.6,191.3,43.2 M206.2,80.1l3.2-14.7c1.3-5.9,4.2-8,7.2-8
	c3.9,0,4.3,2.9,3.6,6.2l-3.5,16.5h8.3l3.7-16.9c1.8-8.5-2.1-12.9-8.2-12.9c-3.4,0-6.6,1.3-9.4,4.3l0.8-3.4h-7.7L197.9,80L206.2,80.1
	L206.2,80.1z M246.6,50.5c-3.9,0-7.7,0.8-9,1.3l-1.4,6.7c1.9-0.5,5.6-1.5,8.8-1.5c4.3,0,5.9,1.3,5.9,3.6c0,0.4,0,0.8-0.1,1.3
	l-0.1,0.6c-2.1-0.2-4-0.4-5-0.4c-8.3,0-14.9,3.2-14.9,10.7c0,5,3.9,7.9,8.9,7.9c3.6,0,6.6-1.4,8.6-3.7l-0.7,3h7.4l3.6-16.5
	c0.3-1.2,0.4-2.5,0.4-3.7C258.9,54.8,256.2,50.5,246.6,50.5 M238.5,71.7c0-2.9,2.5-4.5,6.8-4.5c0.8,0,2.6,0.1,4.2,0.3l-0.4,1.6
	c-1,3.4-3.8,5.7-7.1,5.7C239.7,74.9,238.5,73.7,238.5,71.7 M268.4,80.1l3.2-14.7c1.3-5.9,4.2-8,7.2-8c3.9,0,4.3,2.9,3.6,6.2
	L279,80.1h8.3l3.7-16.9c1.8-8.5-2.1-12.9-8.2-12.9c-3.4,0-6.6,1.3-9.4,4.3l0.8-3.4h-7.7L260.2,80L268.4,80.1L268.4,80.1z
	 M308.7,73.8c-3.8,0-6.3-1.6-6.3-6.3c0-5.6,3.5-10.1,9-10.1c1.8,0,3.7,0.5,5.7,1.3l1.4-6.6c-2.3-0.8-5-1.4-7.6-1.4
	c-9.1,0-17,6.8-17,17.3c0,8.6,5.3,12.7,12.9,12.7c2.5,0,4.7-0.5,6.3-1.1l1.5-6.8C312.9,73.3,310.9,73.8,308.7,73.8 M340.3,79.7
	l1.5-6.9c-2.5,0.8-5.1,1.6-8.3,1.6c-3.7,0-7-1.3-7.2-5.7h19.2c0.7-2.3,1.1-4.5,1.1-6.6c0-6.4-3.7-11.7-11.7-11.7
	c-10.4,0-16.7,8.5-16.7,17.9c0,8,5.4,12.7,13.7,12.7C335.4,80.9,338.1,80.4,340.3,79.7 M334.4,56.5c2.7,0,4.6,1.9,4.6,5
	c0,0.5-0.1,1-0.1,1.5H327C328.3,59.1,330.9,56.5,334.4,56.5"/>
</svg>
