<?xml version="1.0" encoding="utf-8"?>
<!-- Generator: Adobe Illustrator 26.3.1, SVG Export Plug-In . SVG Version: 6.00 Build 0)  -->
<svg version="1.1" id="Layer_1" xmlns="http://www.w3.org/2000/svg" xmlns:xlink="http://www.w3.org/1999/xlink" x="0px" y="0px"
	 viewBox="0 0 588.1 357.4" style="enable-background:new 0 0 588.1 357.4;" xml:space="preserve">
<style type="text/css">
	.st0{fill-rule:evenodd;clip-rule:evenodd;fill:#FCD202;}
	.st1{fill:#FFFFFF;}
	.st2{fill:#ED1C24;}
	.st3{fill:#231F20;}
</style>
<g>
	<path id="Rectangle-11" class="st0" d="M24.4,0h538.9c13,0,24.4,11.4,24.4,24.4v310.3c0,11.4-11.4,22.7-24.4,22.7H24.4
		C11.4,357.4,0,346,0,333V24.4C1.6,11.4,11.4,0,24.4,0z"/>
	<path id="path24" class="st1" d="M345.7,93.9l3.8-18H38.8l-3.8,18H345.7"/>
	<path id="path26" class="st2" d="M383.1,51.3c0,0,4.2-19.1,4.2-19.3h-26.5c0,0.1-5.5,25.3-5.5,25.5c0.1,0,6.8,0,6.8,0
		c0.1,0,4.2-19,4.2-19h12.8c0,0-4,19.1-4.2,19.2c0.1,0,19.6,0,19.6,0L392,69.5c0,0-19.4,0-19.5,0c0,0.1-3.9,18-3.9,18
		s-14.6,0-14.7,0c0,0.1-1.3,6.4-1.4,6.5h21.7c0-0.1,3.9-18,3.9-18s19.3,0,19.5,0c0-0.1,5.1-24.5,5.1-24.6L383.1,51.3"/>
	<path id="path28" class="st3" d="M335.2,57c2.8,0,4.7,1.9,4.7,5.1c0,0.5-0.1,1-0.1,1.5h-12.1C328.9,59.6,331.6,57,335.2,57z
		 M341.2,80.7l1.5-7.1c-2.6,0.9-5.2,1.6-8.4,1.6c-3.8,0-7.1-1.3-7.3-5.9h19.6c0.7-2.3,1.1-4.6,1.1-6.8c0-6.5-3.8-11.9-12-11.9
		c-10.6,0-17,8.7-17,18.3c0,8.2,5.5,13,14,13C336.2,81.9,338.9,81.4,341.2,80.7L341.2,80.7L341.2,80.7z M308.9,74.6
		c-3.9,0-6.5-1.7-6.5-6.5c0-5.7,3.6-10.4,9.2-10.4c1.8,0,3.8,0.5,5.8,1.3l1.4-6.8c-2.3-0.8-5.1-1.4-7.8-1.4c-9.3,0-17.3,7-17.3,17.7
		c0,8.8,5.4,13,13.2,13c2.6,0,4.8-0.5,6.4-1.1l1.5-7C313.2,74.1,311.2,74.6,308.9,74.6L308.9,74.6z M267.8,81l3.3-15.1
		c1.3-6.1,4.3-8.2,7.4-8.2c4,0,4.5,3,3.7,6.4L278.6,81h8.5l3.7-17.3c1.8-8.6-2.1-13.2-8.4-13.2c-3.5,0-6.8,1.4-9.6,4.4l0.8-3.5h-7.9
		L259.3,81H267.8z M237.2,72.5c0-3,2.6-4.6,7-4.6c0.8,0,2.7,0.1,4.3,0.3l-0.4,1.7c-1,3.5-3.9,5.9-7.3,5.9
		C238.5,75.7,237.2,74.5,237.2,72.5C237.2,72.5,237.2,72.5,237.2,72.5z M245.4,50.8c-3.9,0-7.9,0.9-9.2,1.3l-1.4,6.8
		c1.9-0.5,5.6-1.5,9-1.5c4.5,0,6.1,1.4,6.1,3.7c0,0.4,0,0.9-0.1,1.4l-0.1,0.6c-2.1-0.2-4.2-0.4-5.1-0.4c-8.4,0-15.2,3.3-15.2,11
		c0,5.1,3.9,8.1,9,8.1c3.6,0,6.7-1.4,8.7-3.8l-0.7,3.1h7.6l3.7-16.9c0.3-1.3,0.4-2.6,0.4-3.8C258,55.2,255.2,50.8,245.4,50.8
		C245.4,50.8,245.4,50.8,245.4,50.8z M204.2,81l3.3-15.1c1.3-6.1,4.3-8.2,7.4-8.2c4,0,4.5,3,3.7,6.4L215,81h8.5l3.7-17.3
		c1.8-8.6-2.1-13.2-8.4-13.2c-3.5,0-6.8,1.4-9.6,4.4l0.8-3.5H202L195.7,81C195.7,81,204.2,81,204.2,81z M189,43.3
		c-0.2,2.7,1.8,4.8,4.4,4.8c2.9,0,5-2.1,5.2-4.8c0.2-2.7-1.8-4.8-4.4-4.8C191.2,38.6,189.1,40.7,189,43.3L189,43.3z M187.8,51.5
		L181.4,81h8.4l6.4-29.5H187.8z M163.7,81l3.3-15.4h12.9l1.5-7.6h-12.8l2-9.5h13.5l1.7-7.6h-22.3l-8.4,40H163.7z M155.3,58l1.4-6.5
		h-9.1l1.8-8.2l-8.9,2L135,70.5c-1.5,7.1,2.4,11.1,9.5,11.1c1.5,0,4-0.3,5.8-0.9l1.4-6.5c-1.4,0.4-3.2,0.7-4.8,0.7
		c-2.4,0-4.2-0.8-3.6-3.8l2.8-13.1C146.2,58,155.3,58,155.3,58z M123.1,72.3c0,2.4-2.9,2.8-5.4,2.8c-3.1,0-6.5-0.8-8.4-1.4l-1.4,6.7
		c2.7,0.7,6.1,1.2,9.3,1.2c7.6,0,13.8-2.9,13.8-10c0-9.2-11.1-7.6-11.1-11.7c0-1.8,1.8-2.5,4.6-2.5c2.7,0,6.4,1.1,7.7,1.4l1.4-6.7
		c-2.6-0.7-5.6-1.1-8.3-1.1c-8.3,0-13.3,3.7-13.3,9.8C112,69.7,123.1,68.2,123.1,72.3C123.1,72.3,123.1,72.3,123.1,72.3z M91.1,81.9
		c9.3,0,15.6-6.8,17.1-15.6c1.5-8.9-3.4-15.7-12.8-15.7c-9.3,0-15.6,6.8-17.1,15.7C76.8,75.1,81.8,81.9,91.1,81.9L91.1,81.9z
		 M91.9,75.1c-3.4,0-6.1-2.7-4.8-8.8c1.2-6.1,4.2-8.8,7.6-8.8c3.4,0,6.1,2.7,4.8,8.8C98.2,72.3,95.3,75.1,91.9,75.1L91.9,75.1z
		 M56,68.8h3.7c12,0,18.6-5.9,18.6-15.7c0-7.3-5.2-12.1-14-12.1H53.3l-8.4,40h8.6C53.4,81,56,68.8,56,68.8z M57.5,61.5l2.8-13.1h3.6
		c3.9,0,5.8,1.6,5.8,5.4c0,4.8-3,7.8-8.6,7.8L57.5,61.5"/>
	<polygon points="94.1,147.9 96.3,136.7 54.2,136.7 42.5,196.4 86.8,196.4 89,185.1 57.2,185.1 60.3,170.9 88.6,170.9 90.8,159.6 
		62.5,159.6 64.8,147.9 	"/>
	<path d="M101.9,163h23.4l-2.4,9.7H99.5L101.9,163z"/>
	<path id="path28_00000004517256529193178200000000057199132260053149_" class="st3" d="M399.2,160.4c4.2,0,7.1,2.9,7.1,7.6
		c0,0.8-0.1,1.5-0.2,2.3h-18.2C389.7,164.4,393.8,160.4,399.2,160.4z M408.2,196.2l2.3-10.7c-3.9,1.3-7.8,2.4-12.7,2.4
		c-5.7,0-10.8-2-11-8.9h29.6c1.1-3.5,1.7-7,1.7-10.2c0-9.9-5.7-18-18-18c-16,0-25.7,13.1-25.7,27.6c0,12.4,8.3,19.7,21.1,19.7
		C400.7,198,404.8,197.2,408.2,196.2L408.2,196.2L408.2,196.2z M359.5,187.1c-5.8,0-9.8-2.5-9.8-9.8c0-8.5,5.4-15.6,13.9-15.6
		c2.7,0,5.7,0.8,8.8,2l2.2-10.2c-3.5-1.3-7.6-2.2-11.8-2.2c-14.1,0-26.1,10.5-26.1,26.7c0,13.3,8.2,19.6,19.9,19.6
		c3.9,0,7.3-0.7,9.7-1.7l2.3-10.5C366,186.3,363,187.1,359.5,187.1L359.5,187.1z M297.5,196.7l4.9-22.7c2-9.2,6.5-12.3,11.1-12.3
		c6,0,6.7,4.5,5.6,9.6l-5.4,25.4h12.8l5.7-26c2.8-13-3.2-19.8-12.7-19.8c-5.2,0-10.2,2.1-14.5,6.6l1.2-5.3h-11.9l-9.6,44.5H297.5z
		 M251.3,183.9c0-4.5,3.9-7,10.5-7c1.3,0,4,0.1,6.6,0.5l-0.5,2.5c-1.5,5.3-5.8,8.9-10.9,8.9C253.2,188.7,251.3,186.9,251.3,183.9
		C251.3,183.9,251.3,183.9,251.3,183.9z M263.7,151.1c-5.9,0-11.9,1.3-13.9,2l-2.2,10.3c2.9-0.8,8.5-2.3,13.6-2.3
		c6.7,0,9.2,2.1,9.2,5.6c0,0.6,0,1.3-0.2,2.1l-0.2,0.9c-3.2-0.4-6.3-0.6-7.7-0.6c-12.7,0-23,4.9-23,16.6c0,7.6,5.9,12.2,13.6,12.2
		c5.5,0,10.1-2.2,13.2-5.7l-1,4.7h11.4l5.6-25.5c0.4-1.9,0.6-3.9,0.6-5.7C282.7,157.8,278.5,151.1,263.7,151.1
		C263.7,151.1,263.7,151.1,263.7,151.1z M201.5,196.7l4.9-22.7c2-9.2,6.5-12.3,11.1-12.3c6,0,6.7,4.5,5.6,9.6l-5.4,25.4h12.8l5.7-26
		c2.8-13-3.2-19.8-12.6-19.8c-5.2,0-10.2,2.1-14.5,6.6l1.2-5.3h-11.9l-9.6,44.5C188.7,196.7,201.5,196.7,201.5,196.7z M178.5,139.9
		c-0.3,4,2.7,7.2,6.6,7.2c4.4,0,7.5-3.1,7.8-7.2c0.3-4-2.7-7.2-6.6-7.2C182,132.7,178.8,135.8,178.5,139.9L178.5,139.9z
		 M176.7,152.2l-9.6,44.5h12.7l9.6-44.5H176.7z M140.5,196.7l5-23.3h19.4l2.3-11.4h-19.3l3-14.3h20.4l2.5-11.4h-33.7l-12.7,60.3
		H140.5z"/>
</g>
</svg>
