<?xml version="1.0" encoding="utf-8"?>
<!-- Generator: Adobe Illustrator 26.3.1, SVG Export Plug-In . SVG Version: 6.00 Build 0)  -->
<svg version="1.1" id="Layer_1" xmlns="http://www.w3.org/2000/svg" xmlns:xlink="http://www.w3.org/1999/xlink" x="0px" y="0px"
	 viewBox="0 0 588.1 357.4" style="enable-background:new 0 0 588.1 357.4;" xml:space="preserve">
<style type="text/css">
	.st0{fill-rule:evenodd;clip-rule:evenodd;}
	.st1{fill:#FFFFFF;}
	.st2{fill:url(#Shape2_00000134938834950603961490000006559473794475761593_);}
	.st3{fill:url(#SVGID_1_);}
</style>
<path id="Rectangle-11" class="st0" d="M24.4,0h538.9c13,0,24.4,11.4,24.4,24.4v310.3c0,11.4-11.4,22.7-24.4,22.7H24.4
	C11.4,357.4,0,346,0,333V24.4C1.6,11.4,11.4,0,24.4,0z"/>
<g>
	<path id="Shape1" class="st1" d="M191.6,214.2c0,2-1.4,4.4-3.2,5.4L127.1,255c-1.8,1-4.6,1-6.3,0l-61.3-35.5
		c-1.8-1-3.2-3.4-3.2-5.4v-70.9c0-2,1.4-4.4,3.2-5.4l61.3-35.5c1.8-1,4.6-1,6.3,0l61.3,35.5c1.8,1,3.2,3.4,3.2,5.4V214.2z
		 M531.8,148.4H477v13.1h19.7v56.1h15.5v-56.1h19.6L531.8,148.4z M282.6,148.4h-54.9v13.1h19.7v56.1h15.5v-56.1h19.7L282.6,148.4z
		 M441.4,146.2c-17.3,0-26.9,11-26.9,27v44.4h15.4v-44.7c0-6.9,4.1-12.3,11.7-12.3c7.6,0,11.6,6.4,11.6,12.3v44.7h15.4v-44.4
		C468.6,157.2,458.7,146.2,441.4,146.2L441.4,146.2z M383.4,148.4v69.2h15.4v-69.2H383.4z M331.3,175.8l0.5,3.1l14.4,38.7h6.3
		l19.6-69.2H357l-9.4,36.4l-0.6,3.9l-0.8-3.9l-12.5-36.4h-5l-12.5,36.4l-0.8,3.9l-0.5-3.9l-9.4-36.4h-15.2l19.6,69.2h6.3l14.4-38.7
		L331.3,175.8"/>
	
		<radialGradient id="Shape2_00000174600011127653499350000011923564506298807471_" cx="68.18" cy="508.1569" r="0.9058" gradientTransform="matrix(81.5287 0 0 -92.0297 -5439.4185 46917.375)" gradientUnits="userSpaceOnUse">
		<stop  offset="0" style="stop-color:#FFCC00"/>
		<stop  offset="9.157000e-02" style="stop-color:#FFC800"/>
		<stop  offset="0.1739" style="stop-color:#FFBD00"/>
		<stop  offset="0.2528" style="stop-color:#FFAB00"/>
		<stop  offset="0.3295" style="stop-color:#FF9100"/>
		<stop  offset="0.4046" style="stop-color:#FF7000"/>
		<stop  offset="0.4786" style="stop-color:#FF4700"/>
		<stop  offset="0.5503" style="stop-color:#FF1800"/>
		<stop  offset="0.5822" style="stop-color:#FF0000"/>
		<stop  offset="1" style="stop-color:#FF0000"/>
	</radialGradient>
	<path id="Shape2" style="fill:url(#Shape2_00000174600011127653499350000011923564506298807471_);" d="M155.9,178.9l-16,23.5
		l-8.2-12.5l9.4-14.1c1.8-2.5,5.5-9.4,1.2-18.9c-3.5-7.7-11.1-11.4-17.8-11.4c-6.7,0-13.9,3.4-17.9,11.4c-4.4,9.1-0.6,16.2,1.1,18.6
		c0,0,5.3,7.7,9.6,14.2l7.1,10.3l10.7,16.4c0.1,0.1,1.8,2.7,4.8,2.7c2.8,0,4.6-2.6,4.8-2.8l25-37.1h-13.9L155.9,178.9L155.9,178.9z
		 M124.4,179.5c0,0-4.2-6.4-6.9-10.8c-2.9-4.8,0.3-11.9,6.9-11.9c6.6,0,9.9,7.1,6.9,11.9C128.7,173.1,124.4,179.5,124.4,179.5z"/>
	
		<radialGradient id="SVGID_1_" cx="68.0454" cy="508.112" r="1.1128" gradientTransform="matrix(60.8514 0 0 -92.136 -4065.9558 46971.5117)" gradientUnits="userSpaceOnUse">
		<stop  offset="0" style="stop-color:#00B4E6"/>
		<stop  offset="0.201" style="stop-color:#00B0E3"/>
		<stop  offset="0.3898" style="stop-color:#01A5DB"/>
		<stop  offset="0.5737" style="stop-color:#0292CD"/>
		<stop  offset="0.7546" style="stop-color:#0377BA"/>
		<stop  offset="0.9316" style="stop-color:#0455A1"/>
		<stop  offset="1" style="stop-color:#054696"/>
	</radialGradient>
	<path class="st3" d="M109.1,201.6l-15.7-22.1c0,0-4.2-6.4-6.9-10.8c-2.9-4.8,0.3-11.9,6.9-11.9c0.8,0,1.6,0.1,2.3,0.3l5.5-10.1
		c-2.5-1.1-5.3-1.7-7.8-1.7c-6.7,0-13.9,3.4-17.9,11.4c-4.4,9.1-0.6,16.2,1.1,18.6l27.5,40.7c0.3,0.3,2,2.9,4.9,2.9s4.6-2.5,4.8-2.8
		l8.3-12.6l-7.1-10.5L109.1,201.6L109.1,201.6z"/>
</g>
</svg>
