<?xml version="1.0" encoding="utf-8"?>
<!-- Generator: Adobe Illustrator 26.3.1, SVG Export Plug-In . SVG Version: 6.00 Build 0)  -->
<svg version="1.1" id="Layer_1" xmlns="http://www.w3.org/2000/svg" xmlns:xlink="http://www.w3.org/1999/xlink" x="0px" y="0px"
	 viewBox="0 0 588.1 357.4" style="enable-background:new 0 0 588.1 357.4;" xml:space="preserve">
<style type="text/css">
	.st0{fill-rule:evenodd;clip-rule:evenodd;fill:#FFFFFF;}
	.st1{fill:#1434CB;}
</style>
<path id="Rectangle-11" class="st0" d="M24.4,0h538.9c13,0,24.4,11.4,24.4,24.4v310.3c0,11.4-11.4,22.7-24.4,22.7H24.4
	C11.4,357.4,0,346,0,333V24.4C1.6,11.4,11.4,0,24.4,0z"/>
<path class="st1" d="M247.5,118.4l-50.7,120.9h-33.1l-24.9-96.5c-1.5-5.9-2.8-8.1-7.4-10.6c-7.5-4.1-19.9-7.9-30.9-10.3l0.7-3.5
	h53.2c6.8,0,12.9,4.5,14.4,12.3l13.2,70l32.5-82.3L247.5,118.4L247.5,118.4z M377,199.8c0.1-31.9-44.1-33.7-43.8-47.9
	c0.1-4.3,4.2-9,13.3-10.1c4.5-0.6,16.8-1,30.8,5.4l5.5-25.6c-7.5-2.7-17.2-5.4-29.3-5.4c-30.9,0-52.7,16.4-52.9,40
	c-0.2,17.4,15.5,27.1,27.4,32.9c12.2,5.9,16.3,9.7,16.2,15c-0.1,8.1-9.7,11.7-18.7,11.8c-15.7,0.2-24.8-4.3-32.1-7.6l-5.7,26.5
	c7.3,3.4,20.8,6.3,34.8,6.4C355.4,241.2,376.9,225,377,199.8 M458.6,239.3h28.9l-25.2-120.9h-26.7c-6,0-11.1,3.5-13.3,8.9l-46.9,112
	h32.8l6.5-18.1h40.1L458.6,239.3z M423.8,196.5l16.5-45.4l9.5,45.4H423.8z M292.2,118.4l-25.9,120.9H235l25.9-120.9L292.2,118.4
	L292.2,118.4z"/>
</svg>
