<svg id="svg" version="1.1" xmlns="http://www.w3.org/2000/svg" xmlns:xlink="http://www.w3.org/1999/xlink" width="400" height="400" viewBox="0, 0, 400,400"><g id="svgg"><path id="path0" d="M0.000 200.000 L 0.000 400.000 200.000 400.000 L 400.000 400.000 400.000 200.000 L 400.000 0.000 200.000 0.000 L 0.000 0.000 0.000 200.000 M352.394 173.392 C 352.953 174.067,352.279 180.005,351.389 182.233 C 351.118 182.912,350.667 184.750,350.387 186.318 C 349.634 190.530,349.379 190.399,358.349 190.406 C 362.447 190.409,366.049 190.570,366.352 190.762 C 367.026 191.189,366.510 195.405,364.977 202.000 C 364.440 204.310,363.902 207.042,363.780 208.071 C 363.659 209.100,363.157 210.540,362.664 211.271 L 361.769 212.600 354.134 212.708 C 345.182 212.836,344.669 213.040,344.223 216.651 C 344.090 217.723,343.642 219.770,343.227 221.200 C 342.811 222.630,342.356 224.647,342.214 225.683 C 341.706 229.395,341.743 229.382,331.637 229.528 L 322.801 229.656 322.401 228.602 C 320.833 224.478,322.179 223.431,329.261 223.268 C 336.500 223.102,336.588 223.004,338.209 213.433 C 338.620 211.002,339.211 208.961,339.736 208.162 L 340.591 206.857 348.676 206.728 C 357.638 206.586,357.562 206.609,358.003 203.920 C 358.158 202.974,358.526 201.080,358.820 199.711 C 359.520 196.458,359.916 196.618,350.850 196.477 C 341.601 196.334,341.800 196.428,342.681 192.600 C 342.985 191.280,343.579 188.400,344.000 186.200 C 344.422 184.000,344.852 181.866,344.957 181.457 C 345.541 179.179,344.785 178.800,339.658 178.800 L 334.897 178.800 334.486 179.900 C 333.516 182.491,332.783 185.305,332.360 188.056 C 331.326 194.781,330.496 196.000,326.955 196.000 C 324.331 196.000,324.052 195.572,324.758 192.639 C 325.028 191.517,325.577 188.890,325.977 186.800 C 326.378 184.710,326.997 181.830,327.354 180.400 C 327.710 178.970,328.096 177.143,328.211 176.341 C 328.327 175.538,328.789 174.413,329.240 173.841 L 330.058 172.800 340.980 172.800 C 350.137 172.800,351.981 172.896,352.394 173.392 M180.165 178.600 C 180.675 179.150,181.301 179.600,181.556 179.600 C 183.466 179.600,183.026 185.001,180.946 187.081 C 176.520 191.506,169.224 186.145,172.700 181.022 C 175.046 177.563,178.243 176.526,180.165 178.600 M63.934 180.566 C 64.535 180.877,65.701 181.258,66.524 181.412 C 67.346 181.566,68.240 181.999,68.510 182.373 C 68.779 182.747,69.319 183.172,69.709 183.317 C 70.099 183.463,70.540 183.901,70.690 184.291 C 70.839 184.681,71.293 185.270,71.698 185.600 C 72.713 186.427,73.255 190.459,73.014 195.400 C 72.831 199.142,72.851 199.284,73.328 197.602 C 73.641 196.496,74.100 195.753,74.519 195.673 C 74.893 195.600,75.200 195.389,75.200 195.203 C 75.200 194.772,78.235 191.600,78.647 191.600 C 78.818 191.600,79.600 191.154,80.386 190.609 C 82.967 188.821,93.234 188.697,94.723 190.436 C 95.083 190.856,95.554 191.200,95.770 191.200 C 96.359 191.200,98.800 193.680,98.800 194.278 C 98.800 194.565,99.147 195.147,99.571 195.571 C 101.197 197.197,101.267 205.831,99.671 207.989 C 99.192 208.637,98.800 209.543,98.800 210.003 C 98.800 210.462,98.324 211.280,97.742 211.819 L 96.683 212.800 97.908 212.800 C 98.582 212.800,99.224 213.025,99.335 213.300 C 99.446 213.575,99.551 213.138,99.568 212.329 C 99.625 209.682,101.327 209.109,104.561 210.648 C 106.757 211.692,110.750 211.384,111.225 210.133 C 111.634 209.058,111.242 208.421,110.162 208.406 C 109.921 208.403,109.414 208.058,109.036 207.640 C 108.657 207.221,107.710 206.759,106.929 206.613 C 106.003 206.439,105.441 206.079,105.309 205.574 C 105.198 205.148,104.854 204.800,104.545 204.800 C 104.236 204.800,103.765 204.305,103.500 203.700 C 103.234 203.095,102.905 202.510,102.768 202.400 C 100.384 200.479,103.474 191.200,106.497 191.200 C 106.682 191.200,107.320 190.843,107.916 190.406 C 109.944 188.919,121.159 188.816,122.614 190.271 C 123.299 190.956,123.065 195.409,122.249 197.200 C 121.647 198.523,119.971 198.698,118.158 197.628 C 116.450 196.620,112.400 196.437,112.400 197.367 C 112.400 197.679,112.298 198.201,112.173 198.527 C 112.014 198.941,112.366 199.259,113.337 199.579 C 114.103 199.832,114.821 200.277,114.933 200.569 C 115.045 200.860,115.789 201.221,116.586 201.371 C 117.582 201.558,118.176 201.950,118.483 202.622 C 118.728 203.160,119.163 203.600,119.450 203.600 C 120.198 203.600,120.800 204.920,120.800 206.560 C 120.800 207.892,121.576 208.800,122.715 208.800 C 122.918 208.800,123.276 206.894,123.512 204.565 C 123.791 201.809,124.157 200.090,124.560 199.644 C 124.936 199.229,125.282 197.787,125.441 195.980 C 125.584 194.341,126.025 192.190,126.421 191.200 C 126.817 190.210,127.260 188.500,127.405 187.400 C 127.768 184.644,128.737 183.707,131.548 183.396 C 132.787 183.259,134.167 182.969,134.615 182.751 C 136.642 181.767,138.912 184.329,137.447 185.948 C 137.091 186.341,136.800 187.324,136.800 188.131 L 136.800 189.600 140.120 189.600 C 144.115 189.600,144.400 189.820,144.400 192.911 C 144.400 196.694,142.431 198.400,138.067 198.400 L 134.903 198.400 134.628 200.500 C 134.476 201.655,134.003 203.195,133.576 203.923 C 133.027 204.859,132.800 205.993,132.800 207.805 L 132.800 210.364 134.160 210.619 C 134.908 210.759,136.389 210.812,137.450 210.737 C 139.549 210.588,140.377 211.821,139.507 213.800 C 139.231 214.427,139.341 214.385,140.016 213.608 C 140.853 212.643,140.892 212.637,141.438 213.385 C 141.953 214.089,142.000 214.012,142.000 212.462 C 142.000 211.533,142.265 210.367,142.589 209.873 C 142.913 209.378,143.295 207.630,143.437 205.987 C 143.579 204.344,144.031 202.219,144.442 201.263 C 144.852 200.308,145.303 198.058,145.444 196.263 C 145.596 194.338,146.001 192.426,146.433 191.600 C 146.858 190.786,147.320 188.636,147.536 186.467 C 147.879 183.014,148.007 182.631,149.232 181.367 L 150.557 180.000 160.029 180.000 C 171.125 180.000,170.613 179.800,170.577 184.116 C 170.541 188.471,169.984 188.800,162.636 188.800 L 156.917 188.800 156.660 191.841 C 156.328 195.770,156.113 195.600,161.410 195.600 C 166.878 195.600,167.052 195.744,166.659 199.953 C 166.267 204.146,165.625 204.567,159.370 204.733 C 154.489 204.863,154.345 204.892,153.987 205.833 C 153.785 206.365,153.435 206.800,153.210 206.800 C 152.980 206.800,152.792 207.808,152.782 209.100 C 152.773 210.365,152.516 212.120,152.212 213.000 C 151.704 214.470,151.709 214.527,152.278 213.700 C 153.132 212.460,164.859 212.283,165.568 213.500 C 165.891 214.055,165.978 213.845,165.988 212.486 C 165.995 211.543,166.265 210.367,166.589 209.873 C 166.913 209.378,167.295 207.630,167.437 205.987 C 167.579 204.344,168.035 202.210,168.450 201.245 C 168.864 200.280,169.320 197.984,169.461 196.143 C 169.680 193.297,169.894 192.558,170.894 191.198 L 172.069 189.600 175.755 189.600 C 178.088 189.600,179.616 189.776,179.920 190.080 C 180.724 190.884,180.515 194.545,179.600 195.709 C 179.080 196.370,178.799 197.335,178.798 198.463 C 178.794 201.105,178.092 204.833,177.461 205.555 C 177.144 205.919,176.816 207.423,176.710 209.003 C 176.606 210.545,176.215 212.435,175.841 213.203 L 175.160 214.600 175.944 213.700 C 176.380 213.200,177.189 212.800,177.764 212.800 C 178.557 212.800,178.812 213.011,178.850 213.700 C 178.931 215.147,179.538 211.193,179.572 209.000 C 179.591 207.788,179.902 206.510,180.362 205.755 C 180.838 204.974,181.224 203.333,181.397 201.355 C 181.549 199.620,182.002 197.480,182.403 196.600 C 182.804 195.720,183.255 194.050,183.405 192.890 C 183.796 189.868,184.203 189.600,188.406 189.600 C 191.612 189.600,192.014 189.685,192.573 190.483 C 193.154 191.313,193.222 191.323,193.706 190.661 C 195.548 188.142,204.374 188.780,206.920 191.617 C 208.971 193.901,209.120 195.579,208.285 206.961 C 208.160 208.671,209.057 208.688,209.377 206.981 C 209.756 204.959,212.439 202.134,214.550 201.532 C 215.457 201.274,216.533 200.778,216.941 200.431 C 217.502 199.953,218.833 199.768,222.441 199.667 C 226.217 199.561,227.200 199.416,227.200 198.967 C 227.200 198.655,226.932 198.400,226.603 198.400 C 226.275 198.400,225.782 198.040,225.507 197.600 C 225.087 196.926,224.574 196.800,222.267 196.800 C 220.132 196.800,219.301 196.977,218.509 197.600 C 217.950 198.040,216.899 198.400,216.175 198.400 C 211.605 198.400,213.502 190.165,218.217 189.535 C 223.502 188.829,231.309 189.349,232.176 190.466 C 232.409 190.766,233.095 191.328,233.700 191.715 C 234.305 192.102,234.800 192.610,234.800 192.845 C 234.800 193.080,235.188 193.586,235.662 193.970 C 237.242 195.250,237.059 204.873,235.418 206.800 C 235.137 207.130,234.800 208.614,234.669 210.098 C 234.538 211.582,234.238 213.202,234.004 213.698 L 233.577 214.600 234.237 213.700 C 234.600 213.205,235.236 212.800,235.649 212.800 C 236.158 212.800,236.404 213.090,236.412 213.700 C 236.441 215.865,237.126 213.166,237.519 209.335 C 237.763 206.959,238.198 204.869,238.567 204.306 C 238.930 203.753,239.303 201.995,239.446 200.172 C 239.589 198.337,239.983 196.490,240.380 195.790 C 240.758 195.125,241.187 193.703,241.334 192.631 C 241.731 189.733,241.947 189.600,246.246 189.600 C 249.539 189.600,250.053 189.695,250.485 190.387 C 250.969 191.163,250.989 191.162,251.920 190.287 C 252.785 189.475,253.260 189.401,257.614 189.400 L 262.364 189.400 264.177 191.178 C 265.174 192.156,266.195 193.580,266.447 194.342 C 267.130 196.413,266.707 204.871,265.855 206.172 C 265.492 206.726,265.000 208.577,264.763 210.284 C 264.526 211.991,264.243 213.570,264.136 213.794 C 264.029 214.017,264.216 213.861,264.553 213.447 C 265.052 212.834,265.540 212.731,267.199 212.890 L 269.232 213.086 268.316 212.110 C 267.257 210.982,266.997 202.019,267.964 200.000 C 269.018 197.802,269.833 196.418,270.481 195.727 C 273.093 192.942,275.079 191.200,275.644 191.200 C 275.880 191.200,276.513 190.855,277.049 190.433 C 279.248 188.704,289.353 188.861,291.012 190.651 C 292.333 192.076,292.402 192.880,291.384 194.992 C 290.881 196.035,290.381 197.228,290.273 197.644 C 290.039 198.538,287.499 198.701,285.807 197.931 C 283.814 197.023,278.470 199.541,278.413 201.415 C 278.406 201.644,278.031 202.544,277.580 203.415 C 275.517 207.402,279.603 211.817,283.923 210.269 C 287.550 208.969,289.489 210.624,287.973 213.726 C 287.586 214.520,287.617 214.512,288.316 213.646 C 288.915 212.903,289.364 212.733,290.348 212.878 C 291.783 213.088,291.782 212.286,290.345 210.446 C 289.090 208.840,289.477 201.200,290.813 201.200 C 290.970 201.200,291.217 200.435,291.363 199.500 C 291.800 196.698,294.574 193.322,298.594 190.700 L 300.588 189.400 306.234 189.400 L 311.880 189.400 314.159 191.348 C 315.612 192.589,316.521 193.706,316.665 194.427 C 316.790 195.050,317.231 195.866,317.646 196.242 C 318.283 196.818,318.400 197.508,318.400 200.688 C 318.400 204.719,318.162 205.477,316.342 207.257 L 315.172 208.400 308.010 208.400 C 300.293 208.400,299.801 208.534,301.608 210.144 C 303.075 211.451,307.972 211.711,309.255 210.550 C 310.863 209.095,313.327 210.065,312.940 212.001 L 312.714 213.132 315.141 212.912 C 319.054 212.557,319.096 212.940,316.465 224.935 C 316.039 226.879,315.481 228.679,315.225 228.935 C 314.367 229.793,35.046 229.789,34.187 228.930 C 33.155 227.898,34.255 220.332,36.290 214.467 L 36.892 212.734 39.247 212.867 L 41.603 213.000 41.846 211.600 C 41.980 210.830,42.325 209.824,42.612 209.365 C 42.899 208.905,43.258 207.015,43.410 205.165 C 43.566 203.269,44.013 201.101,44.434 200.200 C 44.845 199.320,45.356 196.944,45.569 194.920 C 45.784 192.864,46.233 190.816,46.586 190.278 C 46.958 189.710,47.321 187.942,47.473 185.958 C 47.709 182.865,47.832 182.497,49.025 181.300 L 50.320 180.000 56.580 180.000 C 61.193 180.000,63.127 180.149,63.934 180.566 M56.626 191.300 C 56.473 192.675,55.999 194.395,55.574 195.123 C 53.774 198.199,55.105 199.408,58.957 198.196 C 65.101 196.263,65.162 188.800,59.033 188.800 L 56.903 188.800 56.626 191.300 M85.399 197.725 C 84.959 198.206,84.239 198.798,83.799 199.040 C 83.323 199.301,82.807 200.247,82.522 201.376 C 82.259 202.420,81.764 203.700,81.422 204.222 C 80.284 205.960,80.617 207.752,82.415 209.568 C 83.911 211.079,85.711 211.727,86.067 210.883 C 86.140 210.709,86.863 210.067,87.674 209.456 C 88.628 208.737,89.238 207.895,89.400 207.072 C 89.539 206.372,89.942 204.956,90.296 203.924 C 91.746 199.703,87.966 194.918,85.399 197.725 M302.873 197.800 C 302.622 198.350,302.143 198.800,301.809 198.800 C 300.941 198.800,301.055 199.894,301.974 200.386 C 302.808 200.832,307.530 200.955,308.567 200.557 C 309.449 200.219,309.357 199.091,308.400 198.493 C 307.960 198.218,307.600 197.725,307.600 197.397 C 307.600 196.236,303.423 196.593,302.873 197.800 M196.590 197.822 C 193.874 198.388,192.903 198.959,192.430 200.269 C 192.154 201.030,191.675 201.750,191.365 201.869 C 191.022 202.000,190.799 202.659,190.798 203.543 C 190.794 205.937,190.063 209.665,189.463 210.355 C 189.154 210.710,188.801 211.720,188.679 212.600 C 188.557 213.480,188.548 213.885,188.658 213.500 C 189.002 212.298,195.443 212.474,195.830 213.695 C 196.239 214.982,197.101 211.925,197.436 208.000 C 197.578 206.350,198.032 204.212,198.447 203.249 C 199.769 200.177,198.805 197.359,196.590 197.822 M252.709 198.280 C 251.470 198.693,250.727 199.202,250.552 199.755 C 250.405 200.220,249.951 200.835,249.543 201.123 C 249.024 201.488,248.797 202.151,248.790 203.323 C 248.777 205.599,248.106 208.352,247.389 209.068 C 247.065 209.392,246.800 210.260,246.800 210.996 C 246.800 211.732,246.740 212.574,246.666 212.867 C 246.592 213.160,246.607 213.265,246.699 213.100 C 247.090 212.401,253.533 212.767,253.724 213.500 C 253.890 214.134,253.912 214.130,253.954 213.460 C 253.979 213.054,254.264 212.154,254.586 211.460 C 254.908 210.767,255.345 208.457,255.557 206.327 C 255.770 204.196,256.146 202.075,256.394 201.612 C 256.988 200.501,255.665 197.387,254.700 197.625 C 254.645 197.638,253.749 197.933,252.709 198.280 M70.800 200.808 C 70.800 201.429,67.387 204.800,66.757 204.800 C 66.479 204.800,65.838 205.188,65.334 205.662 C 64.532 206.415,63.679 206.577,58.608 206.933 L 52.800 207.342 52.790 208.571 C 52.781 209.840,52.328 211.999,51.778 213.400 C 51.474 214.176,51.489 214.178,52.286 213.480 C 53.038 212.821,53.948 212.770,63.122 212.880 C 72.471 212.992,73.090 212.956,72.424 212.336 C 71.536 211.510,71.053 207.216,71.432 203.519 C 71.613 201.751,71.554 200.819,71.250 200.631 C 71.002 200.478,70.800 200.558,70.800 200.808 M219.213 207.384 C 218.515 208.225,218.206 211.033,218.773 211.383 C 219.566 211.873,223.200 211.193,223.200 210.554 C 223.200 210.240,223.650 209.778,224.200 209.527 C 224.750 209.277,225.200 208.845,225.200 208.569 C 225.200 208.292,225.309 207.781,225.443 207.433 C 225.784 206.542,219.949 206.497,219.213 207.384 M206.800 209.917 C 206.800 210.568,206.695 211.707,206.566 212.450 C 206.404 213.389,206.452 213.631,206.724 213.245 C 206.961 212.909,207.525 212.769,208.157 212.890 C 209.270 213.102,209.476 212.836,208.757 212.117 C 208.513 211.873,208.194 211.086,208.047 210.367 C 207.697 208.655,206.800 208.332,206.800 209.917 M120.800 210.826 C 120.800 211.501,120.598 212.446,120.351 212.926 C 119.981 213.646,119.995 213.712,120.431 213.300 C 120.722 213.025,121.464 212.800,122.080 212.800 C 123.454 212.800,123.544 212.001,122.328 210.603 C 121.179 209.282,120.800 209.338,120.800 210.826 " stroke="none" fill="#fccb2c" fill-rule="evenodd"></path><path id="path1" d="M175.706 179.831 C 172.179 181.374,173.116 187.209,176.907 187.316 C 178.517 187.362,180.551 185.849,181.230 184.100 C 182.405 181.077,178.954 178.410,175.706 179.831 M50.062 182.612 C 49.061 183.885,49.010 184.064,48.222 189.086 C 47.904 191.113,47.467 193.100,47.252 193.502 C 47.037 193.905,46.655 195.738,46.403 197.577 C 46.151 199.416,45.698 201.568,45.395 202.360 C 45.092 203.152,44.575 205.545,44.247 207.679 C 43.919 209.812,43.459 211.915,43.225 212.352 C 42.991 212.790,42.800 214.149,42.800 215.374 L 42.800 217.600 44.900 217.553 C 48.582 217.470,49.309 217.173,49.678 215.600 C 50.330 212.820,52.122 206.990,52.457 206.559 C 52.653 206.307,54.819 206.021,57.500 205.892 C 61.622 205.694,62.471 205.527,64.406 204.533 C 66.725 203.342,69.600 201.215,69.600 200.691 C 69.600 200.522,70.088 199.646,70.684 198.746 C 73.150 195.019,72.422 188.060,69.232 184.871 C 66.702 182.340,65.375 181.982,57.571 181.718 L 50.942 181.493 50.062 182.612 M150.262 182.331 C 149.898 182.734,149.600 183.342,149.600 183.683 C 149.600 184.023,149.353 184.909,149.052 185.651 C 148.751 186.393,148.388 188.170,148.246 189.600 C 148.105 191.030,147.652 193.280,147.241 194.600 C 146.830 195.920,146.361 198.170,146.200 199.600 C 146.039 201.030,145.680 202.650,145.403 203.200 C 145.125 203.750,144.675 205.820,144.403 207.800 C 144.130 209.780,143.661 212.120,143.359 213.000 C 142.037 216.863,143.353 218.106,148.161 217.535 C 149.443 217.383,151.219 212.897,151.776 208.400 C 152.356 203.715,152.506 203.614,158.871 203.605 C 164.121 203.599,165.600 202.421,165.600 198.246 L 165.600 196.867 160.841 196.733 C 154.324 196.551,154.203 196.439,155.394 191.691 L 156.269 188.200 161.968 188.000 C 168.305 187.778,168.411 187.730,169.212 184.755 C 170.022 181.747,169.560 181.611,158.562 181.604 C 151.667 181.600,150.860 181.671,150.262 182.331 M132.363 184.365 C 129.669 184.743,128.568 186.097,128.206 189.478 C 128.050 190.940,127.680 192.691,127.384 193.369 C 127.089 194.046,126.544 196.386,126.174 198.570 C 125.804 200.753,125.239 203.166,124.919 203.932 C 124.033 206.053,124.009 212.736,124.883 214.074 C 126.865 217.109,135.105 219.059,137.177 216.984 C 139.368 214.789,138.046 212.000,134.815 212.000 C 131.222 212.000,130.646 208.194,133.089 200.600 C 134.469 196.312,134.366 196.400,138.020 196.400 C 141.779 196.400,142.800 195.576,142.800 192.546 L 142.800 190.800 139.809 190.800 C 136.042 190.800,135.431 190.177,135.953 186.870 C 136.281 184.795,135.800 183.845,134.526 184.053 C 134.347 184.083,133.373 184.223,132.363 184.365 M62.698 188.429 C 67.702 191.554,63.268 200.186,56.800 199.911 L 54.200 199.800 54.078 197.430 C 53.966 195.263,54.690 191.988,56.062 188.447 C 56.487 187.349,60.949 187.337,62.698 188.429 M81.334 191.702 C 77.635 193.649,75.284 196.128,74.186 199.239 C 73.858 200.169,73.367 201.200,73.095 201.528 C 72.052 202.788,72.490 210.371,73.712 212.200 C 76.676 216.639,78.764 217.770,83.996 217.770 C 91.941 217.770,96.453 213.989,99.230 205.003 C 102.350 194.908,91.111 186.555,81.334 191.702 M108.680 191.587 C 104.403 193.756,102.692 197.064,103.805 201.014 C 104.357 202.975,106.603 205.595,107.739 205.604 C 108.357 205.609,112.124 207.785,112.686 208.462 C 113.369 209.286,112.274 211.511,110.918 212.053 C 110.108 212.377,108.588 212.385,105.400 212.084 C 100.403 211.612,100.759 211.511,100.413 213.496 C 99.939 216.210,100.540 217.110,103.033 217.421 C 106.911 217.906,112.805 217.412,114.585 216.454 C 115.456 215.984,116.383 215.600,116.645 215.600 C 117.066 215.600,117.870 214.535,119.494 211.825 C 121.624 208.270,119.457 204.296,113.800 201.378 C 110.759 199.810,110.594 199.655,110.476 198.263 C 110.302 196.213,111.380 195.855,116.892 196.130 L 121.185 196.344 121.642 194.819 C 122.710 191.252,121.599 190.498,115.200 190.445 C 111.309 190.413,110.830 190.497,108.680 191.587 M195.600 190.990 C 192.766 192.629,192.755 192.631,191.989 191.686 C 191.374 190.926,190.882 190.801,188.536 190.806 C 184.950 190.814,184.877 190.883,184.230 194.885 C 183.925 196.770,183.494 198.652,183.272 199.066 C 183.050 199.480,182.644 201.344,182.369 203.209 C 182.094 205.074,181.649 207.050,181.379 207.600 C 181.110 208.150,180.675 210.252,180.414 212.270 C 179.791 217.095,180.035 217.600,182.998 217.600 C 185.978 217.600,186.985 216.513,187.599 212.630 C 187.845 211.074,188.383 208.630,188.795 207.200 C 189.207 205.770,189.666 203.880,189.815 203.000 C 191.159 195.079,201.042 193.666,200.203 201.514 C 200.045 202.991,199.684 204.650,199.400 205.200 C 198.769 206.422,197.365 216.698,197.774 217.107 C 197.935 217.268,199.253 217.400,200.704 217.400 L 203.342 217.400 204.317 215.000 C 204.854 213.680,205.555 211.070,205.875 209.200 C 206.196 207.330,206.829 204.564,207.282 203.052 C 208.737 198.206,207.821 194.003,204.747 191.417 C 203.293 190.193,197.450 189.920,195.600 190.990 M218.092 190.740 C 216.266 191.263,214.801 195.039,216.100 195.874 C 216.375 196.051,218.627 196.132,221.105 196.055 C 226.074 195.900,227.271 196.284,228.028 198.275 C 228.853 200.445,227.706 201.200,223.586 201.200 C 214.790 201.200,210.011 204.521,210.002 210.640 C 209.994 216.338,216.505 219.333,223.128 216.677 C 224.808 216.004,224.887 216.008,226.019 216.814 C 226.915 217.451,227.665 217.614,229.273 217.521 L 231.364 217.400 232.465 213.600 C 233.071 211.510,233.754 208.630,233.983 207.200 C 234.212 205.770,234.662 203.880,234.982 203.000 C 236.412 199.074,234.965 193.408,232.204 192.115 C 231.542 191.806,230.550 191.295,230.000 190.982 C 228.953 190.385,219.967 190.203,218.092 190.740 M254.000 190.728 C 253.670 190.878,252.896 191.342,252.279 191.760 C 251.170 192.511,251.146 192.510,249.995 191.660 C 249.050 190.961,248.274 190.800,245.849 190.800 L 242.866 190.800 242.433 192.820 C 242.195 193.931,242.000 195.199,242.000 195.640 C 242.000 196.080,241.754 196.926,241.454 197.520 C 241.154 198.114,240.681 200.130,240.402 202.000 C 240.124 203.870,239.653 206.132,239.357 207.027 C 238.101 210.817,237.616 216.708,238.513 217.278 C 241.923 219.445,246.000 215.288,246.000 209.644 C 246.000 209.181,246.347 207.767,246.771 206.502 C 247.195 205.236,247.658 203.453,247.800 202.540 C 248.315 199.213,252.459 195.526,254.974 196.158 C 257.985 196.913,258.783 200.649,257.075 206.000 C 256.363 208.234,255.016 216.750,255.327 217.060 C 255.452 217.186,256.849 217.313,258.431 217.344 L 261.307 217.400 262.449 214.108 C 263.077 212.297,263.707 209.777,263.848 208.508 C 263.990 207.239,264.369 205.570,264.691 204.800 C 265.013 204.030,265.373 201.506,265.491 199.192 L 265.705 194.983 263.537 192.692 L 261.370 190.400 257.985 190.428 C 256.123 190.444,254.330 190.579,254.000 190.728 M278.600 191.409 C 277.500 191.950,276.401 192.394,276.158 192.396 C 275.916 192.398,275.241 192.841,274.661 193.379 C 274.080 193.917,273.378 194.502,273.102 194.679 C 270.979 196.036,268.403 202.398,268.401 206.288 C 268.398 214.157,274.556 218.747,283.347 217.429 C 285.091 217.167,285.190 217.078,285.946 215.078 C 287.002 212.288,286.582 211.842,283.004 211.958 C 278.377 212.108,275.998 209.963,276.004 205.646 C 276.013 199.330,281.449 194.855,287.083 196.528 C 289.383 197.211,289.349 197.236,290.020 194.429 C 290.423 192.744,289.641 191.011,288.316 190.656 C 285.889 190.006,280.622 190.414,278.600 191.409 M299.937 191.595 C 289.766 196.956,288.092 211.574,297.086 216.494 C 299.956 218.064,308.059 218.440,310.108 217.097 C 312.545 215.500,312.373 211.358,309.892 211.912 C 309.181 212.070,307.034 212.200,305.119 212.200 L 301.638 212.200 300.079 210.677 C 298.830 209.457,298.559 208.940,298.719 208.077 C 299.021 206.452,299.225 206.413,307.438 206.406 C 317.116 206.398,318.166 205.307,316.355 197.142 C 315.002 191.047,306.455 188.159,299.937 191.595 M171.493 193.900 C 170.936 195.605,170.351 198.170,170.193 199.600 C 170.036 201.030,169.680 202.650,169.403 203.200 C 169.125 203.750,168.675 205.820,168.403 207.800 C 168.130 209.780,167.661 212.120,167.359 213.000 C 167.058 213.880,166.809 215.282,166.806 216.116 L 166.800 217.632 170.100 217.516 L 173.400 217.400 173.868 215.030 C 174.125 213.726,174.524 212.247,174.753 211.743 C 174.983 211.239,175.455 209.155,175.801 207.113 C 176.148 205.071,176.683 202.590,176.991 201.600 C 177.511 199.927,178.135 196.560,178.677 192.500 L 178.904 190.800 175.705 190.800 L 172.506 190.800 171.493 193.900 M309.107 197.377 C 310.400 198.788,310.474 199.245,309.779 201.500 C 309.539 202.280,300.662 202.197,300.007 201.408 C 298.971 200.160,301.311 196.743,303.765 195.920 C 305.598 195.306,307.746 195.892,309.107 197.377 M90.483 197.481 C 94.935 201.828,89.467 213.616,83.733 212.032 C 79.962 210.991,78.788 205.963,81.150 200.971 C 83.524 195.952,87.424 194.494,90.483 197.481 M226.069 206.037 C 227.962 207.050,225.036 211.583,221.953 212.413 C 217.029 213.739,214.685 207.884,219.380 205.983 C 220.586 205.494,225.124 205.531,226.069 206.037 " stroke="none" fill="#141208" fill-rule="evenodd"></path><path id="path2" d="M36.285 214.481 C 34.254 220.339,33.157 227.899,34.187 228.930 C 35.046 229.789,314.367 229.793,315.225 228.935 C 315.674 228.486,316.537 224.979,317.888 218.108 C 318.719 213.882,318.355 212.797,316.109 212.805 C 313.403 212.815,312.883 213.125,312.583 214.903 C 311.615 220.632,298.811 220.390,292.834 214.531 C 290.333 212.080,286.800 213.084,286.800 216.246 C 286.800 218.465,276.030 219.622,274.200 217.600 C 273.802 217.160,273.240 216.800,272.951 216.800 C 272.662 216.800,271.497 215.900,270.361 214.800 C 266.958 211.503,264.955 211.955,262.637 216.543 L 261.800 218.200 258.705 218.317 C 254.835 218.463,254.002 218.068,253.995 216.086 C 253.983 212.875,253.895 212.800,250.165 212.800 L 246.824 212.800 246.307 214.574 C 245.388 217.727,244.469 218.401,241.103 218.394 C 236.837 218.385,236.219 217.957,236.351 215.099 C 236.444 213.102,236.362 212.800,235.729 212.800 C 234.946 212.800,232.800 215.210,232.800 216.090 C 232.800 217.885,231.622 218.468,228.456 218.242 C 224.515 217.960,224.662 217.960,218.800 218.238 L 213.800 218.475 212.200 217.210 C 211.320 216.515,210.177 215.238,209.659 214.373 C 208.282 212.069,207.292 212.243,205.828 215.044 C 204.125 218.303,203.973 218.400,200.545 218.400 C 196.607 218.400,196.000 218.055,196.000 215.819 C 196.000 212.859,195.926 212.800,192.197 212.800 L 188.880 212.800 188.399 214.803 C 187.721 217.631,186.615 218.402,183.246 218.394 C 179.248 218.385,178.621 217.925,178.751 215.099 C 178.916 211.541,175.393 212.334,174.656 216.022 C 174.223 218.183,173.820 218.401,170.251 218.394 C 166.148 218.386,165.862 218.197,165.606 215.318 L 165.400 213.000 159.238 212.889 L 153.076 212.778 151.954 214.089 C 151.337 214.810,150.825 215.777,150.816 216.238 C 150.785 217.857,149.599 218.400,146.097 218.400 C 142.155 218.400,141.600 218.004,141.600 215.195 C 141.600 214.124,141.432 213.143,141.226 213.016 C 140.754 212.724,138.800 214.644,138.800 215.399 C 138.800 217.991,137.546 218.524,131.887 218.337 L 127.724 218.200 125.820 216.639 C 124.772 215.780,123.737 214.565,123.519 213.939 C 122.894 212.145,121.279 212.384,119.067 214.597 C 118.078 215.585,116.849 216.582,116.335 216.814 C 115.821 217.045,114.950 217.494,114.400 217.811 C 113.648 218.245,111.862 218.390,107.189 218.394 C 99.575 218.401,99.200 218.241,99.200 214.977 C 99.200 212.549,98.124 211.979,96.412 213.500 C 92.181 217.256,90.291 218.269,86.900 218.599 C 82.850 218.993,78.508 218.508,77.555 217.555 C 77.140 217.140,76.650 216.800,76.466 216.800 C 76.283 216.800,75.280 215.900,74.239 214.800 L 72.345 212.800 62.673 212.814 C 51.790 212.831,51.217 212.981,50.653 215.962 C 50.232 218.184,49.841 218.401,46.251 218.394 C 42.148 218.386,41.862 218.197,41.606 215.318 L 41.400 213.000 39.140 212.881 L 36.880 212.762 36.285 214.481 " stroke="none" fill="#fbf8ec" fill-rule="evenodd"></path><path id="path3" d="M329.490 173.751 C 328.774 174.415,328.386 175.292,328.206 176.651 C 327.945 178.622,326.515 185.230,325.317 190.000 C 324.958 191.430,324.650 193.320,324.632 194.200 L 324.600 195.800 326.945 195.921 C 329.432 196.050,330.800 195.375,330.800 194.018 C 330.800 193.656,330.976 193.184,331.192 192.968 C 331.407 192.753,331.778 191.181,332.015 189.476 C 332.252 187.771,332.933 184.717,333.529 182.688 L 334.612 179.000 339.675 178.888 C 344.548 178.781,344.749 178.809,345.011 179.634 C 345.321 180.611,344.532 185.124,342.687 192.923 C 341.916 196.186,341.865 196.165,351.043 196.430 C 360.426 196.701,359.360 196.425,359.051 198.500 C 357.735 207.323,358.397 206.800,348.551 206.800 L 340.854 206.800 340.034 207.953 C 339.194 209.132,338.017 213.368,338.006 215.248 C 338.000 216.337,336.860 220.189,335.979 222.100 L 335.472 223.200 330.323 223.200 C 322.915 223.200,320.958 224.406,322.364 228.104 L 322.780 229.200 331.590 229.200 C 341.824 229.200,341.703 229.243,342.175 225.459 C 342.330 224.224,342.803 222.225,343.228 221.017 C 343.653 219.808,344.000 218.341,344.000 217.756 C 344.000 213.269,344.944 212.800,353.975 212.800 C 362.545 212.800,364.000 211.879,364.000 206.450 C 364.000 205.833,364.362 203.912,364.805 202.181 C 366.223 196.637,366.958 191.147,366.336 190.752 C 366.041 190.565,362.447 190.409,358.349 190.406 C 349.027 190.398,348.612 189.888,351.367 181.800 C 351.666 180.920,352.112 178.885,352.358 177.278 C 353.089 172.500,353.834 172.800,341.244 172.800 L 330.517 172.800 329.490 173.751 " stroke="none" fill="#ec352c" fill-rule="evenodd"></path><path id="path4" d="M175.987 177.928 C 174.816 178.447,173.794 179.409,172.700 181.022 C 169.224 186.145,176.520 191.506,180.946 187.081 C 183.026 185.001,183.466 179.600,181.556 179.600 C 181.301 179.600,180.675 179.150,180.165 178.600 C 179.237 177.599,177.397 177.303,175.987 177.928 M179.426 180.013 C 183.048 181.766,181.093 187.435,176.907 187.316 C 173.116 187.209,172.179 181.374,175.706 179.831 C 177.435 179.075,177.495 179.078,179.426 180.013 M49.025 181.300 C 47.832 182.497,47.709 182.865,47.473 185.958 C 47.321 187.942,46.958 189.710,46.586 190.278 C 46.233 190.816,45.784 192.864,45.569 194.920 C 45.356 196.944,44.845 199.320,44.434 200.200 C 44.013 201.101,43.566 203.269,43.410 205.165 C 43.254 207.064,42.868 208.935,42.523 209.462 C 42.158 210.018,41.828 211.734,41.705 213.717 C 41.429 218.134,41.684 218.400,46.180 218.400 C 49.840 218.400,50.221 218.194,50.666 215.968 C 50.815 215.223,51.266 214.056,51.668 213.375 C 52.069 212.694,52.511 211.057,52.649 209.736 L 52.900 207.335 58.658 206.930 C 63.680 206.576,64.533 206.414,65.334 205.662 C 65.838 205.188,66.479 204.800,66.757 204.800 C 67.387 204.800,70.800 201.429,70.800 200.808 C 70.800 200.558,71.001 200.477,71.247 200.629 C 71.548 200.815,71.607 201.779,71.429 203.587 C 71.064 207.287,71.533 211.378,72.450 212.497 C 74.792 215.355,76.134 216.800,76.447 216.800 C 76.641 216.800,77.140 217.140,77.555 217.555 C 79.303 219.303,88.486 219.107,91.548 217.256 C 94.068 215.733,98.800 210.997,98.800 209.998 C 98.800 209.541,99.192 208.637,99.671 207.989 C 101.267 205.831,101.197 197.197,99.571 195.571 C 99.147 195.147,98.800 194.565,98.800 194.278 C 98.800 193.680,96.359 191.200,95.770 191.200 C 95.554 191.200,95.083 190.856,94.723 190.436 C 93.234 188.697,82.967 188.821,80.386 190.609 C 79.600 191.154,78.818 191.600,78.647 191.600 C 78.235 191.600,75.200 194.772,75.200 195.203 C 75.200 195.389,74.893 195.600,74.519 195.673 C 74.100 195.753,73.641 196.496,73.328 197.602 C 72.851 199.284,72.831 199.142,73.014 195.400 C 73.255 190.459,72.713 186.427,71.698 185.600 C 71.293 185.270,70.839 184.681,70.690 184.291 C 70.540 183.901,70.099 183.463,69.709 183.317 C 69.319 183.172,68.779 182.747,68.510 182.373 C 68.240 181.999,67.346 181.566,66.524 181.412 C 65.701 181.258,64.535 180.877,63.934 180.566 C 63.127 180.149,61.193 180.000,56.580 180.000 L 50.320 180.000 49.025 181.300 M149.232 181.367 C 148.007 182.631,147.879 183.014,147.536 186.467 C 147.320 188.636,146.858 190.786,146.433 191.600 C 146.001 192.426,145.596 194.338,145.444 196.263 C 145.303 198.058,144.852 200.308,144.442 201.263 C 144.031 202.219,143.579 204.344,143.437 205.987 C 143.295 207.630,142.935 209.344,142.639 209.797 C 141.717 211.203,141.395 216.938,142.193 217.736 C 143.959 219.502,150.800 218.354,150.800 216.291 C 150.800 215.936,151.188 214.988,151.663 214.184 C 152.259 213.172,152.584 211.809,152.715 209.761 C 152.820 208.132,153.066 206.800,153.263 206.800 C 153.459 206.800,153.785 206.365,153.987 205.833 C 154.345 204.892,154.489 204.863,159.370 204.733 C 165.625 204.567,166.267 204.146,166.659 199.953 C 167.052 195.744,166.878 195.600,161.410 195.600 C 156.113 195.600,156.328 195.770,156.660 191.841 L 156.917 188.800 162.636 188.800 C 169.984 188.800,170.541 188.471,170.577 184.116 C 170.613 179.800,171.125 180.000,160.029 180.000 L 150.557 180.000 149.232 181.367 M65.769 182.459 C 71.331 184.293,74.123 193.548,70.684 198.746 C 70.088 199.646,69.600 200.522,69.600 200.691 C 69.600 201.215,66.725 203.342,64.406 204.533 C 62.471 205.527,61.622 205.694,57.500 205.892 C 54.819 206.021,52.653 206.307,52.457 206.559 C 52.122 206.990,50.330 212.820,49.678 215.600 C 49.309 217.173,48.582 217.470,44.900 217.553 L 42.800 217.600 42.800 215.374 C 42.800 214.149,42.991 212.790,43.225 212.352 C 43.459 211.915,43.919 209.812,44.247 207.679 C 44.575 205.545,45.092 203.152,45.395 202.360 C 45.698 201.568,46.151 199.416,46.403 197.577 C 46.655 195.738,47.037 193.905,47.252 193.502 C 47.467 193.100,47.904 191.113,48.222 189.086 C 49.010 184.064,49.061 183.885,50.062 182.612 L 50.942 181.493 57.571 181.718 C 61.276 181.843,64.892 182.170,65.769 182.459 M167.676 181.853 C 169.418 182.141,169.748 182.765,169.212 184.755 C 168.411 187.730,168.305 187.778,161.968 188.000 L 156.269 188.200 155.394 191.691 C 154.203 196.439,154.324 196.551,160.841 196.733 L 165.600 196.867 165.600 198.246 C 165.600 202.421,164.121 203.599,158.871 203.605 C 152.506 203.614,152.356 203.715,151.776 208.400 C 151.219 212.897,149.443 217.383,148.161 217.535 C 143.353 218.106,142.037 216.863,143.359 213.000 C 143.661 212.120,144.130 209.780,144.403 207.800 C 144.675 205.820,145.125 203.750,145.403 203.200 C 145.680 202.650,146.039 201.030,146.200 199.600 C 146.361 198.170,146.830 195.920,147.241 194.600 C 147.652 193.280,148.105 191.030,148.246 189.600 C 148.388 188.170,148.751 186.393,149.052 185.651 C 149.353 184.909,149.600 184.023,149.600 183.683 C 149.600 181.741,160.391 180.648,167.676 181.853 M134.656 182.709 C 134.529 182.915,133.305 183.200,131.936 183.344 C 128.672 183.685,127.740 184.537,127.367 187.523 C 127.214 188.747,126.776 190.480,126.392 191.374 C 126.009 192.268,125.580 194.341,125.438 195.980 C 125.281 197.791,124.937 199.228,124.560 199.644 C 124.157 200.090,123.791 201.809,123.512 204.565 C 123.276 206.894,122.918 208.800,122.715 208.800 C 121.576 208.800,120.800 207.892,120.800 206.560 C 120.800 204.920,120.198 203.600,119.450 203.600 C 119.163 203.600,118.728 203.160,118.483 202.622 C 118.176 201.950,117.582 201.558,116.586 201.371 C 115.789 201.221,115.045 200.860,114.933 200.569 C 114.821 200.277,114.103 199.832,113.337 199.579 C 112.366 199.259,112.014 198.941,112.173 198.527 C 112.298 198.201,112.400 197.679,112.400 197.367 C 112.400 196.437,116.450 196.620,118.158 197.628 C 119.971 198.698,121.647 198.523,122.249 197.200 C 123.065 195.409,123.299 190.956,122.614 190.271 C 121.159 188.816,109.944 188.919,107.916 190.406 C 107.320 190.843,106.682 191.200,106.497 191.200 C 103.474 191.200,100.384 200.479,102.768 202.400 C 102.905 202.510,103.234 203.095,103.500 203.700 C 103.765 204.305,104.236 204.800,104.545 204.800 C 104.854 204.800,105.198 205.148,105.309 205.574 C 105.441 206.079,106.003 206.439,106.929 206.613 C 107.710 206.759,108.657 207.221,109.036 207.640 C 109.414 208.058,109.921 208.403,110.162 208.406 C 111.242 208.421,111.634 209.058,111.225 210.133 C 110.750 211.384,106.757 211.692,104.561 210.648 C 100.849 208.882,99.786 209.542,99.381 213.867 C 98.962 218.333,99.080 218.402,107.144 218.394 C 111.856 218.390,113.647 218.246,114.400 217.811 C 114.950 217.494,115.848 217.035,116.396 216.791 C 118.519 215.845,120.800 212.755,120.800 210.826 C 120.800 208.499,122.806 210.293,123.426 213.175 C 123.719 214.537,124.221 215.272,125.739 216.558 L 127.679 218.200 132.379 218.332 C 137.530 218.477,138.165 218.247,138.626 216.072 C 138.751 215.482,139.079 214.550,139.356 214.000 C 140.412 211.902,139.641 210.582,137.450 210.737 C 136.389 210.812,134.908 210.759,134.160 210.619 L 132.800 210.364 132.800 207.805 C 132.800 205.993,133.027 204.859,133.576 203.923 C 134.003 203.195,134.476 201.655,134.628 200.500 L 134.903 198.400 138.067 198.400 C 142.431 198.400,144.400 196.694,144.400 192.911 C 144.400 189.820,144.115 189.600,140.120 189.600 L 136.800 189.600 136.800 188.049 C 136.800 187.158,137.055 186.286,137.400 186.000 C 138.636 184.974,137.810 183.039,135.944 182.589 C 135.363 182.450,134.783 182.504,134.656 182.709 M135.569 184.383 C 136.189 184.715,136.241 185.051,135.953 186.870 C 135.431 190.177,136.042 190.800,139.809 190.800 L 142.800 190.800 142.800 192.546 C 142.800 195.576,141.779 196.400,138.020 196.400 C 134.366 196.400,134.469 196.312,133.089 200.600 C 130.646 208.194,131.222 212.000,134.815 212.000 C 138.046 212.000,139.368 214.789,137.177 216.984 C 135.105 219.059,126.865 217.109,124.883 214.074 C 124.009 212.736,124.033 206.053,124.919 203.932 C 125.239 203.166,125.804 200.753,126.174 198.570 C 126.544 196.386,127.089 194.046,127.384 193.369 C 127.680 192.691,128.050 190.940,128.206 189.478 C 128.568 186.097,129.669 184.743,132.363 184.365 C 133.373 184.223,134.347 184.083,134.526 184.053 C 134.706 184.024,135.175 184.173,135.569 184.383 M56.062 188.447 C 54.690 191.988,53.966 195.263,54.078 197.430 L 54.200 199.800 56.800 199.911 C 62.418 200.150,66.117 195.111,64.027 190.065 C 63.061 187.733,56.829 186.468,56.062 188.447 M62.282 189.900 C 64.994 192.568,63.284 196.835,58.957 198.196 C 55.105 199.408,53.774 198.199,55.574 195.123 C 55.999 194.395,56.473 192.675,56.626 191.300 L 56.903 188.800 59.033 188.800 C 60.820 188.800,61.344 188.978,62.282 189.900 M195.620 189.607 C 194.860 189.786,194.003 190.254,193.715 190.649 C 193.218 191.328,193.159 191.319,192.573 190.483 C 192.014 189.685,191.612 189.600,188.406 189.600 C 184.203 189.600,183.796 189.868,183.405 192.890 C 183.255 194.050,182.804 195.720,182.403 196.600 C 182.002 197.480,181.549 199.620,181.397 201.355 C 181.224 203.333,180.838 204.974,180.362 205.755 C 179.897 206.518,179.594 207.775,179.580 209.000 C 179.568 210.100,179.328 212.399,179.048 214.109 C 178.415 217.971,178.571 218.147,182.793 218.339 C 186.949 218.528,187.846 217.809,188.455 213.800 C 188.689 212.260,189.138 210.710,189.452 210.355 C 190.061 209.669,190.794 205.958,190.798 203.543 C 190.799 202.659,191.022 202.000,191.365 201.869 C 191.675 201.750,192.154 201.030,192.430 200.269 C 192.813 199.208,193.265 198.783,194.365 198.448 C 198.695 197.130,200.278 198.992,198.447 203.249 C 198.032 204.212,197.578 206.350,197.438 208.000 C 197.298 209.650,196.917 211.884,196.592 212.964 C 195.759 215.728,195.822 217.477,196.774 217.986 C 197.993 218.638,203.432 218.511,204.129 217.814 C 205.260 216.683,206.398 213.732,206.656 211.264 C 206.931 208.638,207.576 208.156,208.042 210.230 C 208.290 211.332,209.050 213.096,210.126 215.068 C 210.387 215.545,211.320 216.507,212.200 217.205 L 213.800 218.475 218.800 218.238 C 221.550 218.107,224.160 218.010,224.600 218.021 C 232.385 218.223,231.711 218.311,232.353 217.000 C 232.676 216.340,233.275 215.135,233.683 214.322 C 234.092 213.510,234.534 211.620,234.666 210.122 C 234.799 208.625,235.137 207.130,235.418 206.800 C 237.059 204.873,237.242 195.250,235.662 193.970 C 235.188 193.586,234.800 193.080,234.800 192.845 C 234.800 192.610,234.305 192.102,233.700 191.715 C 233.095 191.328,232.409 190.766,232.176 190.466 C 231.309 189.349,223.502 188.829,218.217 189.535 C 213.502 190.165,211.605 198.400,216.175 198.400 C 216.899 198.400,217.950 198.040,218.509 197.600 C 219.301 196.977,220.132 196.800,222.267 196.800 C 224.574 196.800,225.087 196.926,225.507 197.600 C 225.782 198.040,226.275 198.400,226.603 198.400 C 226.932 198.400,227.200 198.655,227.200 198.967 C 227.200 199.416,226.217 199.561,222.441 199.667 C 218.833 199.768,217.502 199.953,216.941 200.431 C 216.533 200.778,215.457 201.274,214.550 201.532 C 212.439 202.134,209.756 204.959,209.377 206.981 C 209.057 208.688,208.160 208.671,208.285 206.961 C 209.120 195.579,208.971 193.901,206.920 191.617 C 204.867 189.330,200.269 188.512,195.620 189.607 M253.800 189.470 C 253.140 189.577,252.235 190.004,251.788 190.419 C 250.992 191.159,250.967 191.159,250.485 190.387 C 250.053 189.695,249.539 189.600,246.246 189.600 C 241.947 189.600,241.731 189.733,241.334 192.631 C 241.187 193.703,240.758 195.125,240.380 195.790 C 239.983 196.490,239.589 198.337,239.446 200.172 C 239.306 201.962,238.929 203.754,238.580 204.287 C 238.239 204.807,237.714 207.159,237.412 209.516 C 237.110 211.872,236.694 214.563,236.486 215.496 C 235.975 217.796,236.511 218.166,240.609 218.339 C 245.107 218.529,246.800 216.457,246.800 210.762 C 246.800 210.154,247.065 209.392,247.389 209.068 C 248.106 208.352,248.777 205.599,248.790 203.323 C 248.797 202.151,249.024 201.488,249.543 201.123 C 249.951 200.835,250.405 200.221,250.551 199.758 C 250.988 198.374,254.582 197.382,255.572 198.372 C 256.618 199.418,256.923 200.622,256.394 201.612 C 256.146 202.075,255.770 204.196,255.557 206.327 C 255.345 208.457,254.908 210.767,254.586 211.460 C 254.264 212.154,254.000 213.812,254.000 215.146 C 254.000 218.179,254.443 218.477,258.705 218.317 L 261.800 218.200 263.073 215.744 C 263.909 214.129,264.491 212.241,264.770 210.234 C 265.004 208.554,265.492 206.726,265.855 206.172 C 266.707 204.871,267.130 196.413,266.447 194.342 C 266.195 193.580,265.183 192.164,264.197 191.197 L 262.404 189.437 258.702 189.357 C 256.666 189.313,254.460 189.364,253.800 189.470 M279.314 189.575 C 278.387 189.726,277.293 190.154,276.883 190.525 C 276.473 190.896,275.929 191.200,275.675 191.200 C 275.081 191.200,273.139 192.892,270.481 195.727 C 269.833 196.418,269.018 197.802,267.964 200.000 C 266.953 202.110,267.262 210.850,268.400 212.336 C 270.117 214.577,272.377 216.800,272.938 216.800 C 273.234 216.800,273.802 217.160,274.200 217.600 C 274.852 218.320,275.428 218.399,279.962 218.394 C 285.850 218.387,285.645 218.475,287.196 215.272 C 289.479 210.560,288.269 208.711,283.923 210.269 C 279.603 211.817,275.517 207.402,277.580 203.415 C 278.031 202.544,278.406 201.644,278.413 201.415 C 278.470 199.541,283.814 197.023,285.807 197.931 C 287.499 198.701,290.039 198.538,290.273 197.644 C 290.381 197.228,290.881 196.035,291.384 194.992 C 293.625 190.342,288.558 188.067,279.314 189.575 M301.200 189.551 C 297.363 190.401,291.924 195.902,291.363 199.500 C 291.217 200.435,290.970 201.200,290.813 201.200 C 289.477 201.200,289.090 208.840,290.345 210.446 C 290.755 210.971,291.230 211.850,291.402 212.400 C 292.625 216.324,297.329 218.600,304.218 218.600 C 311.754 218.600,312.240 218.260,312.920 212.516 C 313.213 210.045,311.078 208.900,309.255 210.550 C 307.972 211.711,303.075 211.451,301.608 210.144 C 299.801 208.534,300.293 208.400,308.010 208.400 L 315.172 208.400 316.342 207.257 C 318.162 205.477,318.400 204.719,318.400 200.688 C 318.400 197.508,318.283 196.818,317.646 196.242 C 317.231 195.866,316.790 195.050,316.665 194.427 C 316.522 193.710,315.621 192.597,314.209 191.390 L 311.979 189.485 307.289 189.363 C 304.710 189.296,301.970 189.380,301.200 189.551 M170.894 191.198 C 169.894 192.558,169.680 193.297,169.461 196.143 C 169.320 197.984,168.864 200.280,168.450 201.245 C 168.035 202.210,167.579 204.344,167.437 205.987 C 167.295 207.630,166.935 209.344,166.639 209.797 C 166.342 210.250,165.971 212.072,165.814 213.846 C 165.434 218.137,165.686 218.400,170.180 218.400 C 173.840 218.400,174.221 218.194,174.666 215.968 C 174.815 215.223,175.291 214.013,175.724 213.280 C 176.229 212.423,176.580 210.918,176.705 209.073 C 176.815 207.438,177.141 205.922,177.461 205.555 C 178.092 204.833,178.794 201.105,178.798 198.463 C 178.799 197.335,179.080 196.370,179.600 195.709 C 180.515 194.545,180.724 190.884,179.920 190.080 C 179.616 189.776,178.088 189.600,175.755 189.600 L 172.069 189.600 170.894 191.198 M93.433 191.259 C 98.140 193.610,100.801 199.919,99.230 205.003 C 96.453 213.989,91.941 217.770,83.996 217.770 C 78.764 217.770,76.676 216.639,73.712 212.200 C 72.490 210.371,72.052 202.788,73.095 201.528 C 73.367 201.200,73.858 200.169,74.186 199.239 C 76.657 192.235,86.892 187.992,93.433 191.259 M120.370 190.751 C 121.692 191.120,122.232 192.849,121.642 194.819 L 121.185 196.344 116.892 196.130 C 111.380 195.855,110.302 196.213,110.476 198.263 C 110.594 199.655,110.759 199.810,113.800 201.378 C 119.457 204.296,121.624 208.270,119.494 211.825 C 117.870 214.535,117.066 215.600,116.645 215.600 C 116.383 215.600,115.456 215.984,114.585 216.454 C 112.805 217.412,106.911 217.906,103.033 217.421 C 100.540 217.110,99.939 216.210,100.413 213.496 C 100.759 211.511,100.403 211.612,105.400 212.084 C 108.588 212.385,110.108 212.377,110.918 212.053 C 112.274 211.511,113.369 209.286,112.686 208.462 C 112.124 207.785,108.357 205.609,107.739 205.604 C 106.603 205.595,104.357 202.975,103.805 201.014 C 101.785 193.843,111.002 188.133,120.370 190.751 M204.747 191.417 C 207.821 194.003,208.737 198.206,207.282 203.052 C 206.829 204.564,206.196 207.330,205.875 209.200 C 205.555 211.070,204.854 213.680,204.317 215.000 L 203.342 217.400 200.704 217.400 C 199.253 217.400,197.935 217.268,197.774 217.107 C 197.365 216.698,198.769 206.422,199.400 205.200 C 199.684 204.650,200.045 202.991,200.203 201.514 C 201.042 193.666,191.159 195.079,189.815 203.000 C 189.666 203.880,189.207 205.770,188.795 207.200 C 188.383 208.630,187.845 211.074,187.599 212.630 C 186.985 216.513,185.978 217.600,182.998 217.600 C 180.035 217.600,179.791 217.095,180.414 212.270 C 180.675 210.252,181.110 208.150,181.379 207.600 C 181.649 207.050,182.094 205.074,182.369 203.209 C 182.644 201.344,183.050 199.480,183.272 199.066 C 183.494 198.652,183.925 196.770,184.230 194.885 C 184.877 190.883,184.950 190.814,188.536 190.806 C 190.882 190.801,191.374 190.926,191.989 191.686 C 192.755 192.631,192.766 192.629,195.600 190.990 C 197.450 189.920,203.293 190.193,204.747 191.417 M230.000 190.982 C 230.550 191.295,231.542 191.806,232.204 192.115 C 234.965 193.408,236.412 199.074,234.982 203.000 C 234.662 203.880,234.212 205.770,233.983 207.200 C 233.754 208.630,233.071 211.510,232.465 213.600 L 231.364 217.400 229.273 217.521 C 227.665 217.614,226.915 217.451,226.019 216.814 C 224.887 216.008,224.808 216.004,223.128 216.677 C 216.505 219.333,209.994 216.338,210.002 210.640 C 210.011 204.521,214.790 201.200,223.586 201.200 C 227.706 201.200,228.853 200.445,228.028 198.275 C 227.271 196.284,226.074 195.900,221.105 196.055 C 218.627 196.132,216.375 196.051,216.100 195.874 C 214.801 195.039,216.266 191.263,218.092 190.740 C 219.967 190.203,228.953 190.385,230.000 190.982 M263.537 192.692 L 265.705 194.983 265.491 199.192 C 265.373 201.506,265.013 204.030,264.691 204.800 C 264.369 205.570,263.990 207.239,263.848 208.508 C 263.707 209.777,263.077 212.297,262.449 214.108 L 261.307 217.400 258.431 217.344 C 256.849 217.313,255.452 217.186,255.327 217.060 C 255.016 216.750,256.363 208.234,257.075 206.000 C 258.783 200.649,257.985 196.913,254.974 196.158 C 252.459 195.526,248.315 199.213,247.800 202.540 C 247.658 203.453,247.195 205.236,246.771 206.502 C 246.347 207.767,246.000 209.181,246.000 209.644 C 246.000 215.288,241.923 219.445,238.513 217.278 C 237.616 216.708,238.101 210.817,239.357 207.027 C 239.653 206.132,240.124 203.870,240.402 202.000 C 240.681 200.130,241.154 198.114,241.454 197.520 C 241.754 196.926,242.000 196.080,242.000 195.640 C 242.000 195.199,242.195 193.931,242.433 192.820 L 242.866 190.800 245.849 190.800 C 248.274 190.800,249.050 190.961,249.995 191.660 C 251.146 192.510,251.170 192.511,252.279 191.760 C 254.081 190.539,254.428 190.458,257.985 190.428 L 261.370 190.400 263.537 192.692 M288.316 190.656 C 289.641 191.011,290.423 192.744,290.020 194.429 C 289.349 197.236,289.383 197.211,287.083 196.528 C 281.449 194.855,276.013 199.330,276.004 205.646 C 275.998 209.963,278.377 212.108,283.004 211.958 C 286.582 211.842,287.002 212.288,285.946 215.078 C 284.503 218.895,276.160 218.642,271.681 214.645 C 267.032 210.496,267.921 197.992,273.102 194.679 C 273.378 194.502,274.080 193.917,274.661 193.379 C 275.241 192.841,275.916 192.398,276.158 192.396 C 276.401 192.394,277.500 191.950,278.600 191.409 C 280.622 190.414,285.889 190.006,288.316 190.656 M310.880 190.754 C 314.825 192.254,317.081 196.654,316.730 202.166 C 316.459 206.422,316.511 206.399,307.438 206.406 C 299.225 206.413,299.021 206.452,298.719 208.077 C 298.559 208.940,298.830 209.457,300.079 210.677 L 301.638 212.200 305.119 212.200 C 307.034 212.200,309.181 212.070,309.892 211.912 C 312.373 211.358,312.545 215.500,310.108 217.097 C 308.059 218.440,299.956 218.064,297.086 216.494 C 288.092 211.574,289.766 196.956,299.937 191.595 C 302.324 190.337,308.528 189.860,310.880 190.754 M178.677 192.500 C 178.135 196.560,177.511 199.927,176.991 201.600 C 176.683 202.590,176.148 205.071,175.801 207.113 C 175.455 209.155,174.983 211.239,174.753 211.743 C 174.524 212.247,174.125 213.726,173.868 215.030 L 173.400 217.400 170.100 217.516 L 166.800 217.632 166.806 216.116 C 166.809 215.282,167.058 213.880,167.359 213.000 C 167.661 212.120,168.130 209.780,168.403 207.800 C 168.675 205.820,169.125 203.750,169.403 203.200 C 169.680 202.650,170.036 201.030,170.193 199.600 C 170.351 198.170,170.936 195.605,171.493 193.900 L 172.506 190.800 175.705 190.800 L 178.904 190.800 178.677 192.500 M303.765 195.920 C 301.311 196.743,298.971 200.160,300.007 201.408 C 300.662 202.197,309.539 202.280,309.779 201.500 C 310.474 199.245,310.400 198.788,309.107 197.377 C 307.746 195.892,305.598 195.306,303.765 195.920 M83.841 197.271 C 78.751 201.466,78.684 210.638,83.733 212.032 C 89.467 213.616,94.935 201.828,90.483 197.481 C 88.416 195.463,86.122 195.390,83.841 197.271 M89.014 197.900 C 90.632 199.723,91.056 201.714,90.296 203.924 C 89.942 204.956,89.539 206.372,89.400 207.072 C 89.238 207.895,88.628 208.737,87.674 209.456 C 86.863 210.067,86.140 210.709,86.067 210.883 C 85.711 211.727,83.911 211.079,82.415 209.568 C 80.617 207.752,80.284 205.960,81.422 204.222 C 81.764 203.700,82.259 202.420,82.522 201.376 C 82.807 200.247,83.323 199.301,83.799 199.040 C 84.239 198.798,84.959 198.206,85.399 197.725 C 86.503 196.518,87.846 196.583,89.014 197.900 M307.600 197.397 C 307.600 197.725,307.960 198.218,308.400 198.493 C 309.357 199.091,309.449 200.219,308.567 200.557 C 307.530 200.955,302.808 200.832,301.974 200.386 C 301.055 199.894,300.941 198.800,301.809 198.800 C 302.143 198.800,302.622 198.350,302.873 197.800 C 303.423 196.593,307.600 196.236,307.600 197.397 M219.380 205.983 C 214.685 207.884,217.029 213.739,221.953 212.413 C 225.036 211.583,227.962 207.050,226.069 206.037 C 225.124 205.531,220.586 205.494,219.380 205.983 M225.443 207.433 C 225.309 207.781,225.200 208.292,225.200 208.569 C 225.200 208.845,224.750 209.277,224.200 209.527 C 223.650 209.778,223.200 210.240,223.200 210.554 C 223.200 211.193,219.566 211.873,218.773 211.383 C 218.206 211.033,218.515 208.225,219.213 207.384 C 219.949 206.497,225.784 206.542,225.443 207.433 M322.748 229.309 C 322.918 229.478,326.734 229.568,331.229 229.508 L 339.400 229.399 330.919 229.199 C 326.255 229.090,322.578 229.139,322.748 229.309 " stroke="none" fill="#b57b1f" fill-rule="evenodd"></path></g></svg>