<?xml version="1.0" standalone="yes"?>
<svg xmlns="http://www.w3.org/2000/svg" width="200" height="200">
<path style="fill:#ffcb29; stroke:none;" d="M0 0L0 200L200 200L200 0L0 0z"/>
<path style="fill:#d84e27; stroke:none;" d="M162 98C166.245 96.5955 166.467 93.1022 167 89L172 89L171 98L179 98L179 103C171.395 103.006 169.016 104.184 168 112L161 112L161 115L171 115C172.013 107.678 174.878 106.025 182 106L184 95L175 95L177 87C166.751 83.9706 163.312 88.2559 162 98z"/>
<path style="fill:#65531e; stroke:none;" d="M88 89L88 90L91 91L88 89M24 93L25 93L31 91C27.8826 89.7369 25.8289 90.1764 24 93z"/>
<path style="fill:#d84e27; stroke:none;" d="M31 90L32 91L31 90z"/>
<path style="fill:#65531e; stroke:none;" d="M74 93L75 93L85 91C81.1454 89.3825 76.3994 89.2989 74 93z"/>
<path style="fill:#090804; stroke:none;" d="M87 90L88 94L91 91L87 90M22 108C26.3132 106.456 37.573 99.8531 35.2384 94.2284C33.8428 90.8659 27.5494 89.7348 25.1644 92.6034C22.3368 96.0042 22.1827 103.756 22 108z"/>
<path style="fill:#65531e; stroke:none;" d="M33 91L34 92L33 91z"/>
<path style="fill:#090804; stroke:none;" d="M72 108L76 102C79.7136 101.877 81.5634 101.576 83 98L77 98L85 91C73.4629 91.0013 72.4657 97.1819 72 108z"/>
<path style="fill:#65531e; stroke:none;" d="M86.3333 91.6667L86.6667 92.3333L86.3333 91.6667M64 92L65 93L64 92z"/>
<path style="fill:#090804; stroke:none;" d="M69 106C64.7899 103.236 66.7729 99.3353 71 98L68 92C58.6185 95.1036 63.7865 113.784 69 106z"/>
<path style="fill:#d84e27; stroke:none;" d="M68 92L69 93L68 92z"/>
<path style="fill:#65531e; stroke:none;" d="M84.3333 92.6667L84.6667 93.3333L84.3333 92.6667M90 92L91 93L90 92M35 93L36 94L35 93M87 93L88 94L87 93M89 93L90 94L89 93z"/>
<path style="fill:#ffcb29; stroke:none;" d="M28 94L27 100C30.8609 98.5782 32.8466 95.6147 28 94z"/>
<path style="fill:#65531e; stroke:none;" d="M31 94L32 95L31 94z"/>
<path style="fill:#d84e27; stroke:none;" d="M23 95L24 96L23 95z"/>
<path style="fill:#65531e; stroke:none;" d="M27.3333 95.6667L27.6667 96.3333L27.3333 95.6667M39 97L42 96L39 97z"/>
<path style="fill:#090804; stroke:none;" d="M42.0424 95.6968C34.132 97.8155 35.418 111.075 43.9823 108.214C51.3336 105.758 50.8208 93.3456 42.0424 95.6968z"/>
<path style="fill:#65531e; stroke:none;" d="M46 95L47 96L46 95M54 95L55 96L54 95z"/>
<path style="fill:#090804; stroke:none;" d="M57 104L57 105L50 106C52.0937 108.951 58.3461 109.875 59.0795 104.931C59.4611 102.357 56.4106 99.836 55 98L61 98C56.8364 91.6034 47.834 99.6391 57 104z"/>
<path style="fill:#65531e; stroke:none;" d="M60 95L61 96L60 95M71 95L71 98L72 98L71 95z"/>
<path style="fill:#090804; stroke:none;" d="M86 95L84 108C88.935 106.556 88.86 99.4855 89 95L86 95z"/>
<path style="fill:#65531e; stroke:none;" d="M89.3333 95.6667L89.6667 96.3333L89.3333 95.6667M92 95L93 96L92 95z"/>
<path style="fill:#090804; stroke:none;" d="M90 108L100 98L99 108C111.64 103.559 95.1238 85.8895 91.3542 101.003C90.7741 103.329 90.3193 105.628 90 108z"/>
<path style="fill:#65531e; stroke:none;" d="M97 95L98 96L97 95M102 95L103 96L102 95M108 95L109 99L108 95z"/>
<path style="fill:#090804; stroke:none;" d="M108 98L114 98L114 101C102.25 101.139 105.437 108.825 116 108C117.095 102.69 114.688 87.6935 108 98z"/>
<path style="fill:#65531e; stroke:none;" d="M115 95L116 96L115 95M121 95L122 96L121 95z"/>
<path style="fill:#090804; stroke:none;" d="M122 95L119 108L129 98L128 108C131.842 106.876 134.59 99.8097 131.366 96.4815C129.346 94.3961 124.691 95.3268 122 95z"/>
<path style="fill:#65531e; stroke:none;" d="M124 95L125 96L124 95M126 95L127 96L126 95z"/>
<path style="fill:#d84e27; stroke:none;" d="M131 95L132 96L131 95z"/>
<path style="fill:#65531e; stroke:none;" d="M139 95L140 96L139 95z"/>
<path style="fill:#090804; stroke:none;" d="M143 106C136.261 103.946 139.477 98.8626 145 98C134.52 82.0364 132.999 121.235 143 106z"/>
<path style="fill:#65531e; stroke:none;" d="M144 95L145 96L144 95M150 95L151 96L150 95z"/>
<path style="fill:#090804; stroke:none;" d="M156 106L149 103L158 103C157.742 95.1171 148.346 92.1768 146.333 101.015C144.876 107.415 152.308 111.69 156 106z"/>
<path style="fill:#65531e; stroke:none;" d="M155 95L156 96L155 95M23.3333 96.6667L23.6667 97.3333L23.3333 96.6667z"/>
<path style="fill:#d84e27; stroke:none;" d="M48 96L49 97L48 96z"/>
<path style="fill:#65531e; stroke:none;" d="M63.3333 96.6667L63.6667 97.3333L63.3333 96.6667M73.3333 96.6667L73.6667 97.3333L73.3333 96.6667M77.3333 96.6667L77.6667 97.3333L77.3333 96.6667M85.3333 96.6667L85.6667 97.3333L85.3333 96.6667M103 96L104 97L103 96z"/>
<path style="fill:#d84e27; stroke:none;" d="M132 96L133 97L132 96z"/>
<path style="fill:#65531e; stroke:none;" d="M137 96L138 97L137 96M145 96L146 97L145 96M148 96L149 97L148 96z"/>
<path style="fill:#d84e27; stroke:none;" d="M157 96L158 97L157 96M89 97L90 98L89 97z"/>
<path style="fill:#65531e; stroke:none;" d="M117 97L118 98L117 97M132 97L133 98L132 97M147 97L148 98L147 97M31 98L32 99L31 98M37 98L38 99L37 98M42 98L43 99L42 98z"/>
<path style="fill:#ffcb29; stroke:none;" d="M41 106C49.4766 101.535 39.4658 95.6834 41 106z"/>
<path style="fill:#d84e27; stroke:none;" d="M44 98L45 99L44 98z"/>
<path style="fill:#65531e; stroke:none;" d="M49 98L50 99L49 98M51 98L51 101L52 101L51 98M55 98L56 99L55 98M59.6667 98.3333L60.3333 98.6667L59.6667 98.3333M67 98L67 99L71 99L67 98z"/>
<path style="fill:#d84e27; stroke:none;" d="M91 98L92 99L91 98z"/>
<path style="fill:#65531e; stroke:none;" d="M97 98L98 99L97 98z"/>
<path style="fill:#ffcb29; stroke:none;" d="M94 106L99 107L99 98L94 106z"/>
<path style="fill:#65531e; stroke:none;" d="M99 98L100 99L99 98M113 98L114 99L113 98M120.333 98.6667L120.667 99.3333L120.333 98.6667z"/>
<path style="fill:#d84e27; stroke:none;" d="M126 98L127 99L126 98z"/>
<path style="fill:#ffcb29; stroke:none;" d="M123 106L128 106L128 98L123 106z"/>
<path style="fill:#65531e; stroke:none;" d="M128 98L129 99L128 98M135 98L136 99L135 98M140 98L141 99L140 98z"/>
<path style="fill:#d84e27; stroke:none;" d="M141 98L142 99L141 98z"/>
<path style="fill:#65531e; stroke:none;" d="M143.667 98.3333L144.333 98.6667L143.667 98.3333z"/>
<path style="fill:#d84e27; stroke:none;" d="M146 98L147 99L146 98z"/>
<path style="fill:#ffcb29; stroke:none;" d="M150 101L155 101C153.228 98.3184 151.772 98.3184 150 101z"/>
<path style="fill:#65531e; stroke:none;" d="M154 98L155 99L154 98M158 98L158 103L159 103L158 98z"/>
<path style="fill:#d84e27; stroke:none;" d="M29 99L30 100L29 99z"/>
<path style="fill:#65531e; stroke:none;" d="M30 99L31 100L30 99M35 99L33 102L37 101L35 99z"/>
<path style="fill:#d84e27; stroke:none;" d="M45 99L46 100L45 99M55 99L56 100L55 99z"/>
<path style="fill:#65531e; stroke:none;" d="M91.3333 99.6667L91.6667 100.333L91.3333 99.6667M124 99L125 100L124 99M139 99L140 100L139 99M22 100L22 103L23 103L22 100z"/>
<path style="fill:#ffcb29; stroke:none;" d="M35 100L26 103L26 106L37 107L35 100z"/>
<path style="fill:#65531e; stroke:none;" d="M40 100L41 101L40 100M56 100L57 101L56 100M62.3333 100.667L62.6667 101.333L62.3333 100.667M66 100L67 101L66 100M82 100L83 101L82 100M88.3333 100.667L88.6667 101.333L88.3333 100.667M95 100L96 101L95 100M109 100L109 101L114 101L109 100M134 100L135 101L134 100M138 100L139 101L138 100M149 100L150 101L149 100z"/>
<path style="fill:#d84e27; stroke:none;" d="M40 101L41 102L40 101z"/>
<path style="fill:#65531e; stroke:none;" d="M58 101L59 102L58 101z"/>
<path style="fill:#d84e27; stroke:none;" d="M66 101L67 102L66 101z"/>
<path style="fill:#65531e; stroke:none;" d="M72.3333 101.667L72.6667 102.333L72.3333 101.667z"/>
<path style="fill:#d84e27; stroke:none;" d="M82 101L83 102L82 101z"/>
<path style="fill:#65531e; stroke:none;" d="M84.3333 101.667L84.6667 102.333L84.3333 101.667M103.333 101.667L103.667 102.333L103.333 101.667z"/>
<path style="fill:#d84e27; stroke:none;" d="M106 101L107 102L106 101z"/>
<path style="fill:#65531e; stroke:none;" d="M117.333 101.667L117.667 102.333L117.333 101.667M128.333 101.667L128.667 102.333L128.333 101.667M132.333 101.667L132.667 102.333L132.333 101.667M145 101L145 105L146 105L145 101M31 102L32 103L31 102z"/>
<path style="fill:#d84e27; stroke:none;" d="M32 102L33 103L32 102z"/>
<path style="fill:#65531e; stroke:none;" d="M45.3333 102.667L45.6667 103.333L45.3333 102.667M49.3333 102.667L49.6667 103.333L49.3333 102.667M53 102L54 103L53 102M59 102L60 103L59 102M76 102L77 103L76 102z"/>
<path style="fill:#d84e27; stroke:none;" d="M88 102L89 103L88 102z"/>
<path style="fill:#65531e; stroke:none;" d="M94 102L94 105L95 105L94 102M99.3333 102.667L99.6667 103.333L99.3333 102.667z"/>
<path style="fill:#d84e27; stroke:none;" d="M105 102L106 103L105 102M119 102L120 103L119 102z"/>
<path style="fill:#65531e; stroke:none;" d="M123.333 102.667L123.667 103.333L123.333 102.667M55 103L56 104L55 103M90.3333 103.667L90.6667 104.333L90.3333 103.667z"/>
<path style="fill:#d84e27; stroke:none;" d="M103 103L104 104L103 103z"/>
<path style="fill:#ffcb29; stroke:none;" d="M109 106L113 103L109 106z"/>
<path style="fill:#65531e; stroke:none;" d="M113 103L114 104L113 103M119.333 103.667L119.667 104.333L119.333 103.667M149 105L158 104C154.911 102.704 151.307 102.359 149 105z"/>
<path style="fill:#d84e27; stroke:none;" d="M40 104L41 105L40 104M44 104L45 105L44 104z"/>
<path style="fill:#65531e; stroke:none;" d="M56 104L57 105L56 104M108.333 104.667L108.667 105.333L108.333 104.667M138 104L139 105L138 104M21 105L21 109L25 109L25 108L21 105M25.3333 105.667L25.6667 106.333L25.3333 105.667M36 105L37 106L36 105M43 105L44 106L43 105M48 105L46 108L48 105M50 105L51 106L50 105z"/>
<path style="fill:#d84e27; stroke:none;" d="M51 105L52 106L51 105z"/>
<path style="fill:#65531e; stroke:none;" d="M71 105L71 109L75 109L75 108L71 105M75.3333 105.667L75.6667 106.333L75.3333 105.667M83 105L83 109L87 109L87 108L83 105M87 105L88 106L87 105M104 105L105 106L104 105M116.333 105.667L116.667 106.333L116.333 105.667M131.333 105.667L131.667 106.333L131.333 105.667M134 105L135 106L134 105M139 105L140 106L139 105M142 105L144 107L144 105L142 105M150 105L151 106L150 105M155 105L156 106L155 105z"/>
<path style="fill:#fcf8ed; stroke:none;" d="M18 106L17 115L158 115L159 106C152.716 108.812 150.428 108.513 144 106C140.054 109.979 136.667 107.656 132 106L127 109L127 106L123 106L123 109L118 106L117 106C112.634 110.459 107.946 108.721 103 106L98 109L98 106L94 106L94 109L88 106L83 109L83 106L70 106C66.9513 108.835 64.9688 108.995 62 106C58.7985 107.103 50.891 112.082 50 106C41.6053 109.282 38.2179 105.546 30.0147 106.062C26.3536 106.293 23.4382 109.542 21 106L18 106z"/>
<path style="fill:#65531e; stroke:none;" d="M59 106L60 107L59 106z"/>
<path style="fill:#ffcb29; stroke:none;" d="M87 106L88 107L87 106z"/>
<path style="fill:#65531e; stroke:none;" d="M102.333 106.667L102.667 107.333L102.333 106.667z"/>
<path style="fill:#ffcb29; stroke:none;" d="M104 106L105 107L104 106z"/>
<path style="fill:#65531e; stroke:none;" d="M122 106L118 107C119.541 109.072 122.501 109.011 122 106M127 106L131 109L131 108L127 106z"/>
<path style="fill:#ffcb29; stroke:none;" d="M134 106L135 107L134 106z"/>
<path style="fill:#65531e; stroke:none;" d="M146 106L147 107L146 106M37 107L38 108L37 107z"/>
<path style="fill:#ffcb29; stroke:none;" d="M49 107L50 108L49 107z"/>
<path style="fill:#65531e; stroke:none;" d="M58 107L59 108L58 107M62 107L63 108L62 107z"/>
<path style="fill:#ffcb29; stroke:none;" d="M75 107L76 108L75 107z"/>
<path style="fill:#65531e; stroke:none;" d="M93 107L90 108L90 109L93 107M98 107L102 109L102 108L98 107M105 107L106 108L105 107z"/>
<path style="fill:#ffcb29; stroke:none;" d="M116 107L117 108L116 107M131 107L132 108L131 107M135 107L136 108L135 107M143 107L144 108L143 107M38 108L39 109L38 108z"/>
<path style="fill:#65531e; stroke:none;" d="M39 108L40 109L39 108M44 108L45 109L44 108z"/>
<path style="fill:#ffcb29; stroke:none;" d="M45 108L46 109L45 108z"/>
<path style="fill:#65531e; stroke:none;" d="M50.6667 108.333L51.3333 108.667L50.6667 108.333M56 108L57 109L56 108z"/>
<path style="fill:#ffcb29; stroke:none;" d="M57 108L58 109L57 108M63 108L64 109L63 108z"/>
<path style="fill:#65531e; stroke:none;" d="M64 108L65 109L64 108M68 108L69 109L68 108M106 108L107 109L106 108M111 108L111 109L116 109L111 108z"/>
<path style="fill:#ffcb29; stroke:none;" d="M122 108L123 109L122 108z"/>
<path style="fill:#65531e; stroke:none;" d="M137 108L138 109L137 108M142 108L143 109L142 108M148 108L149 109L148 108M155 108L156 109L155 108z"/>
</svg>
