<?xml version="1.0" standalone="no"?>
<!DOCTYPE svg PUBLIC "-//W3C//DTD SVG 20010904//EN"
 "http://www.w3.org/TR/2001/REC-SVG-20010904/DTD/svg10.dtd">
<svg version="1.0" xmlns="http://www.w3.org/2000/svg"
 width="200.000000pt" height="200.000000pt" viewBox="0 0 200.000000 200.000000"
 preserveAspectRatio="xMidYMid meet">

<g transform="translate(0.000000,200.000000) scale(0.100000,-0.100000)"
fill="#000000" stroke="none">
<path d="M1636 1091 c-3 -22 -9 -46 -12 -55 -4 -11 -1 -16 10 -16 9 0 18 12
22 28 13 60 15 62 46 62 32 0 32 -3 12 -72 -5 -15 2 -18 40 -18 25 0 46 -2 46
-4 0 -3 -4 -16 -10 -30 -8 -22 -16 -26 -49 -26 -38 0 -41 -2 -51 -40 -10 -37
-13 -40 -45 -40 -19 0 -35 -4 -35 -10 0 -5 22 -10 49 -10 l49 0 7 40 c7 40 7
40 50 40 24 0 46 3 48 8 3 4 8 28 12 55 l7 47 -42 0 -42 0 7 40 7 40 -60 0
-59 0 -7 -39z"/>
<path d="M870 1095 c-10 -11 -10 -19 -2 -27 15 -15 44 -2 40 19 -4 23 -22 27
-38 8z"/>
<path d="M246 1089 c-6 -21 -36 -160 -36 -170 0 -5 9 -9 19 -9 13 0 21 9 26
30 5 24 12 30 34 30 42 0 71 26 71 64 0 41 -17 56 -69 63 -29 4 -42 2 -45 -8z
m69 -53 c0 -20 -30 -45 -40 -34 -3 3 -3 18 1 32 7 31 39 32 39 2z"/>
<path d="M745 1088 c-4 -13 -35 -167 -35 -174 0 -2 9 -4 20 -4 14 0 22 10 28
33 6 25 15 33 38 37 38 7 47 40 10 40 -19 0 -26 5 -26 20 0 16 7 20 35 20 28
0 35 4 35 20 0 17 -7 20 -50 20 -32 0 -52 -5 -55 -12z"/>
<path d="M639 1053 c-19 -51 -23 -124 -8 -134 23 -14 59 -11 59 6 0 8 -7 15
-15 15 -9 0 -15 9 -15 23 0 29 11 44 35 48 28 6 33 39 6 39 -12 0 -21 6 -21
15 0 26 -30 16 -41 -12z"/>
<path d="M385 1025 c-46 -46 -23 -115 39 -115 36 0 76 41 76 78 0 60 -70 83
-115 37z m71 -18 c8 -21 -14 -67 -31 -67 -22 0 -30 27 -17 56 12 26 39 32 48
11z"/>
<path d="M523 1024 c-17 -26 -16 -27 10 -48 35 -28 34 -39 -3 -34 -24 4 -30 1
-30 -14 0 -13 8 -18 31 -18 69 0 96 55 42 84 -24 12 -26 15 -10 21 9 4 24 5
32 1 10 -4 15 1 15 14 0 16 -7 20 -35 20 -26 0 -39 -6 -52 -26z"/>
<path d="M855 1038 c-4 -14 -25 -116 -25 -123 0 -3 9 -5 19 -5 15 0 22 12 31
53 6 28 14 60 17 70 3 12 -1 17 -17 17 -11 0 -22 -6 -25 -12z"/>
<path d="M911 998 c-16 -70 -14 -90 6 -86 11 2 21 19 28 45 20 84 62 84 46 0
-7 -42 -6 -47 10 -47 12 0 21 12 28 38 23 82 13 101 -55 100 l-51 0 -12 -50z"/>
<path d="M1076 1034 c-9 -23 -8 -24 23 -18 16 4 32 1 35 -5 5 -7 -2 -11 -16
-11 -38 0 -70 -28 -66 -58 3 -25 7 -27 55 -28 57 -2 56 -2 69 69 4 24 2 42 -6
52 -17 21 -86 20 -94 -1z m52 -76 c-7 -19 -38 -22 -38 -4 0 10 9 16 21 16 12
0 19 -5 17 -12z"/>
<path d="M1201 999 c-16 -72 -14 -91 6 -87 11 2 21 19 28 45 5 23 15 47 22 54
17 17 34 1 28 -27 -3 -13 -7 -35 -10 -49 -4 -20 -1 -25 14 -25 15 0 23 10 30
38 23 81 11 100 -61 100 l-47 0 -10 -49z"/>
<path d="M1365 1025 c-46 -45 -23 -115 37 -115 14 0 29 7 32 16 9 24 8 27 -10
20 -19 -7 -44 10 -44 30 0 21 31 45 50 39 17 -6 35 17 23 29 -15 15 -66 4 -88
-19z"/>
<path d="M1480 1030 c-26 -26 -34 -63 -21 -89 19 -35 93 -42 99 -10 2 12 -3
15 -21 12 -14 -3 -28 0 -31 6 -5 7 7 11 33 11 35 0 41 3 47 25 14 55 -63 88
-106 45z m68 -27 c2 -8 -6 -13 -22 -13 -25 0 -33 10 -19 24 10 10 36 3 41 -11z"/>
</g>
</svg>
